<?xml version="1.0" encoding="UTF-8" standalone="no"?>
<!DOCTYPE svg PUBLIC "-//W3C//DTD SVG 1.1//EN" "http://www.w3.org/Graphics/SVG/1.1/DTD/svg11.dtd">
<!-- Generated by graphviz version 2.40.1 (20161225.0304)
 -->
<!-- Title: G Pages: 1 -->
<svg width="4503pt" height="643pt" viewBox="0.00 0.00 4503.00 643.20" xmlns="http://www.w3.org/2000/svg" xmlns:xlink="http://www.w3.org/1999/xlink">
<g id="graph0" class="graph" transform="scale(1 1) rotate(0) translate(4 639.2)">
<title>G</title>
<polygon fill="#ffffff" stroke="transparent" points="-4,4 -4,-639.2 4499,-639.2 4499,4 -4,4"/>
<g id="clust1" class="cluster">
<title>cluster_1</title>
<polygon fill="#d3d3d3" stroke="#d3d3d3" points="2907,-321.6 2907,-470.4 3601,-470.4 3601,-321.6 2907,-321.6"/>
<text text-anchor="middle" x="3254" y="-453.8" font-family="Times,serif" font-size="14.00" fill="#000000">Максимови</text>
</g>
<g id="clust2" class="cluster">
<title>cluster_2</title>
<polygon fill="#d3d3d3" stroke="#d3d3d3" points="1899,-164.8 1899,-313.6 2439,-313.6 2439,-164.8 1899,-164.8"/>
<text text-anchor="middle" x="2169" y="-297" font-family="Times,serif" font-size="14.00" fill="#000000">Цоневи</text>
</g>
<g id="clust3" class="cluster">
<title>cluster_3</title>
<polygon fill="#d3d3d3" stroke="#d3d3d3" points="1811,-8 1811,-156.8 2464,-156.8 2464,-8 1811,-8"/>
<text text-anchor="middle" x="2137.5" y="-140.2" font-family="Times,serif" font-size="14.00" fill="#000000">Спасови</text>
</g>
<g id="clust4" class="cluster">
<title>cluster_4</title>
<polygon fill="#d3d3d3" stroke="#d3d3d3" points="1240,-8 1240,-156.8 1803,-156.8 1803,-8 1240,-8"/>
<text text-anchor="middle" x="1521.5" y="-140.2" font-family="Times,serif" font-size="14.00" fill="#000000">Димитрови</text>
</g>
<g id="clust5" class="cluster">
<title>cluster_5</title>
<polygon fill="#d3d3d3" stroke="#d3d3d3" points="3393,-164.8 3393,-313.6 3975,-313.6 3975,-164.8 3393,-164.8"/>
<text text-anchor="middle" x="3684" y="-297" font-family="Times,serif" font-size="14.00" fill="#000000">Максимови</text>
</g>
<g id="clust6" class="cluster">
<title>cluster_6</title>
<polygon fill="#d3d3d3" stroke="#d3d3d3" points="2753,-164.8 2753,-313.6 3375,-313.6 3375,-164.8 2753,-164.8"/>
<text text-anchor="middle" x="3064" y="-297" font-family="Times,serif" font-size="14.00" fill="#000000">Максимови</text>
</g>
<g id="clust7" class="cluster">
<title>cluster_7</title>
<polygon fill="#d3d3d3" stroke="#d3d3d3" points="2472,-8 2472,-156.8 3141,-156.8 3141,-8 2472,-8"/>
<text text-anchor="middle" x="2806.5" y="-140.2" font-family="Times,serif" font-size="14.00" fill="#000000">Максимови</text>
</g>
<g id="clust8" class="cluster">
<title>cluster_8</title>
<polygon fill="#d3d3d3" stroke="#d3d3d3" points="3149,-8 3149,-156.8 3715,-156.8 3715,-8 3149,-8"/>
<text text-anchor="middle" x="3432" y="-140.2" font-family="Times,serif" font-size="14.00" fill="#000000">Максимови</text>
</g>
<g id="clust9" class="cluster">
<title>cluster_9</title>
<polygon fill="#d3d3d3" stroke="#d3d3d3" points="3723,-8 3723,-156.8 4487,-156.8 4487,-8 3723,-8"/>
<text text-anchor="middle" x="4105" y="-140.2" font-family="Times,serif" font-size="14.00" fill="#000000">Максимови</text>
</g>
<g id="clust10" class="cluster">
<title>cluster_10</title>
<polygon fill="#d3d3d3" stroke="#d3d3d3" points="421,-321.6 421,-470.4 1025,-470.4 1025,-321.6 421,-321.6"/>
<text text-anchor="middle" x="723" y="-453.8" font-family="Times,serif" font-size="14.00" fill="#000000">Жендови</text>
</g>
<g id="clust11" class="cluster">
<title>cluster_11</title>
<polygon fill="#d3d3d3" stroke="#d3d3d3" points="8,-164.8 8,-313.6 700,-313.6 700,-164.8 8,-164.8"/>
<text text-anchor="middle" x="354" y="-297" font-family="Times,serif" font-size="14.00" fill="#000000">Жендови</text>
</g>
<g id="clust12" class="cluster">
<title>cluster_12</title>
<polygon fill="#d3d3d3" stroke="#d3d3d3" points="868,-164.8 868,-313.6 1509,-313.6 1509,-164.8 868,-164.8"/>
<text text-anchor="middle" x="1188.5" y="-297" font-family="Times,serif" font-size="14.00" fill="#000000">Димитрови</text>
</g>
<g id="clust13" class="cluster">
<title>cluster_13</title>
<polygon fill="#d3d3d3" stroke="#d3d3d3" points="1033,-321.6 1033,-470.4 2003,-470.4 2003,-321.6 1033,-321.6"/>
<text text-anchor="middle" x="1518" y="-453.8" font-family="Times,serif" font-size="14.00" fill="#000000">Михайлови</text>
</g>
<g id="clust14" class="cluster">
<title>cluster_14</title>
<polygon fill="#d3d3d3" stroke="#d3d3d3" points="3219,-478.4 3219,-627.2 3475,-627.2 3475,-478.4 3219,-478.4"/>
<text text-anchor="middle" x="3347" y="-610.6" font-family="Times,serif" font-size="14.00" fill="#000000">Тютюнкови</text>
</g>
<!-- Димитър -->
<g id="node1" class="node">
<title>Димитър</title>
<ellipse fill="#ffffff" stroke="#ffffff" cx="3347" cy="-419.6" rx="82.8012" ry="18"/>
<text text-anchor="middle" x="3347" y="-415.4" font-family="Times,serif" font-size="14.00" fill="#000000">Димитър</text>
</g>
<!-- Олга_Дъщеря -->
<g id="node2" class="node">
<title>Олга_Дъщеря</title>
<ellipse fill="#ffffff" stroke="#ffffff" cx="3027" cy="-347.6" rx="112.3689" ry="18"/>
<text text-anchor="middle" x="3027" y="-343.4" font-family="Times,serif" font-size="14.00" fill="#000000">Олга_Дъщеря</text>
</g>
<!-- Димитър&#45;&gt;Олга_Дъщеря -->
<g id="edge1" class="edge">
<title>Димитър-&gt;Олга_Дъщеря</title>
<path fill="none" stroke="#000000" d="M3289.4208,-406.6447C3237.138,-394.8811 3159.6839,-377.4539 3102.4648,-364.5796"/>
<polygon fill="#000000" stroke="#000000" points="3102.9114,-361.0926 3092.387,-362.3121 3101.3747,-367.9219 3102.9114,-361.0926"/>
</g>
<!-- Петър_Син -->
<g id="node4" class="node">
<title>Петър_Син</title>
<ellipse fill="#ffffff" stroke="#ffffff" cx="3257" cy="-347.6" rx="99.6003" ry="18"/>
<text text-anchor="middle" x="3257" y="-343.4" font-family="Times,serif" font-size="14.00" fill="#000000">Петър_Син</text>
</g>
<!-- Димитър&#45;&gt;Петър_Син -->
<g id="edge3" class="edge">
<title>Димитър-&gt;Петър_Син</title>
<path fill="none" stroke="#000000" d="M3325.2135,-402.1708C3313.7766,-393.0213 3299.5848,-381.6679 3287.1126,-371.6901"/>
<polygon fill="#000000" stroke="#000000" points="3289.2063,-368.8828 3279.2111,-365.3689 3284.8334,-374.3489 3289.2063,-368.8828"/>
</g>
<!-- Енчо_Син -->
<g id="node5" class="node">
<title>Енчо_Син</title>
<ellipse fill="#ffffff" stroke="#ffffff" cx="3484" cy="-347.6" rx="109.4145" ry="18"/>
<text text-anchor="middle" x="3484" y="-343.4" font-family="Times,serif" font-size="14.00" fill="#000000">Енчо_Син</text>
</g>
<!-- Димитър&#45;&gt;Енчо_Син -->
<g id="edge5" class="edge">
<title>Димитър-&gt;Енчо_Син</title>
<path fill="none" stroke="#000000" d="M3378.7749,-402.9008C3397.5568,-393.03 3421.5685,-380.4107 3441.9108,-369.7199"/>
<polygon fill="#000000" stroke="#000000" points="3443.7434,-372.7107 3450.9671,-364.9603 3440.4869,-366.5143 3443.7434,-372.7107"/>
</g>
<!-- Олга_Съпруга -->
<g id="node6" class="node">
<title>Олга_Съпруга</title>
<ellipse fill="#ffffff" stroke="#ffffff" cx="2288" cy="-262.8" rx="136.6714" ry="18"/>
<text text-anchor="middle" x="2288" y="-258.6" font-family="Times,serif" font-size="14.00" fill="#000000">Олга_Съпруга</text>
</g>
<!-- Олга_Дъщеря&#45;&gt;Олга_Съпруга -->
<g id="edge7" class="edge">
<title>Олга_Дъщеря-&gt;Олга_Съпруга</title>
<path fill="none" stroke="#000000" d="M2935.2714,-337.0742C2800.2257,-321.5777 2548.1039,-292.6468 2401.5589,-275.8308"/>
<polygon fill="#000000" stroke="#000000" points="2401.527,-272.3043 2391.1932,-274.6414 2400.7289,-279.2587 2401.527,-272.3043"/>
</g>
<!-- Йонка -->
<g id="node3" class="node">
<title>Йонка</title>
<ellipse fill="#ffffff" stroke="#ffffff" cx="3166" cy="-419.6" rx="80.5152" ry="18"/>
<text text-anchor="middle" x="3166" y="-415.4" font-family="Times,serif" font-size="14.00" fill="#000000">Йонка</text>
</g>
<!-- Йонка&#45;&gt;Олга_Дъщеря -->
<g id="edge2" class="edge">
<title>Йонка-&gt;Олга_Дъщеря</title>
<path fill="none" stroke="#000000" d="M3133.7612,-402.9008C3114.6193,-392.9855 3090.1233,-380.297 3069.4249,-369.5755"/>
<polygon fill="#000000" stroke="#000000" points="3071.0044,-366.452 3060.5151,-364.9603 3067.7848,-372.6677 3071.0044,-366.452"/>
</g>
<!-- Йонка&#45;&gt;Петър_Син -->
<g id="edge4" class="edge">
<title>Йонка-&gt;Петър_Син</title>
<path fill="none" stroke="#000000" d="M3188.0286,-402.1708C3199.5926,-393.0213 3213.942,-381.6679 3226.5528,-371.6901"/>
<polygon fill="#000000" stroke="#000000" points="3228.8716,-374.3185 3234.5421,-365.3689 3224.5282,-368.829 3228.8716,-374.3185"/>
</g>
<!-- Йонка&#45;&gt;Енчо_Син -->
<g id="edge6" class="edge">
<title>Йонка-&gt;Енчо_Син</title>
<path fill="none" stroke="#000000" d="M3222.852,-406.7278C3275.012,-394.918 3352.6056,-377.3497 3409.6638,-364.4308"/>
<polygon fill="#000000" stroke="#000000" points="3410.7291,-367.7783 3419.7093,-362.1564 3409.1832,-360.9511 3410.7291,-367.7783"/>
</g>
<!-- Петър_Съпруг -->
<g id="node22" class="node">
<title>Петър_Съпруг</title>
<ellipse fill="#ffffff" stroke="#ffffff" cx="3257" cy="-262.8" rx="110.0584" ry="18"/>
<text text-anchor="middle" x="3257" y="-258.6" font-family="Times,serif" font-size="14.00" fill="#000000">Петър_Съпруг</text>
</g>
<!-- Петър_Син&#45;&gt;Петър_Съпруг -->
<g id="edge25" class="edge">
<title>Петър_Син-&gt;Петър_Съпруг</title>
<path fill="none" stroke="#000000" d="M3257,-329.1997C3257,-318.0112 3257,-303.4983 3257,-290.8954"/>
<polygon fill="#000000" stroke="#000000" points="3260.5001,-290.8731 3257,-280.8731 3253.5001,-290.8731 3260.5001,-290.8731"/>
</g>
<!-- Енчо_Съпруг -->
<g id="node17" class="node">
<title>Енчо_Съпруг</title>
<ellipse fill="#ffffff" stroke="#ffffff" cx="3701" cy="-262.8" rx="119.8719" ry="18"/>
<text text-anchor="middle" x="3701" y="-258.6" font-family="Times,serif" font-size="14.00" fill="#000000">Енчо_Съпруг</text>
</g>
<!-- Енчо_Син&#45;&gt;Енчо_Съпруг -->
<g id="edge20" class="edge">
<title>Енчо_Син-&gt;Енчо_Съпруг</title>
<path fill="none" stroke="#000000" d="M3527.4385,-330.8808C3541.6486,-325.3944 3557.5043,-319.2544 3572,-313.6 3597.3257,-303.721 3625.4129,-292.6714 3648.8959,-283.4068"/>
<polygon fill="#000000" stroke="#000000" points="3650.304,-286.6139 3658.3207,-279.6868 3647.734,-280.1027 3650.304,-286.6139"/>
</g>
<!-- Иванка_Дъщеря -->
<g id="node7" class="node">
<title>Иванка_Дъщеря</title>
<ellipse fill="#ffffff" stroke="#ffffff" cx="2288" cy="-190.8" rx="143.0558" ry="18"/>
<text text-anchor="middle" x="2288" y="-186.6" font-family="Times,serif" font-size="14.00" fill="#000000">Иванка_Дъщеря</text>
</g>
<!-- Олга_Съпруга&#45;&gt;Иванка_Дъщеря -->
<g id="edge8" class="edge">
<title>Олга_Съпруга-&gt;Иванка_Дъщеря</title>
<path fill="none" stroke="#000000" d="M2288,-244.6314C2288,-236.931 2288,-227.7743 2288,-219.2166"/>
<polygon fill="#000000" stroke="#000000" points="2291.5001,-219.2132 2288,-209.2133 2284.5001,-219.2133 2291.5001,-219.2132"/>
</g>
<!-- Таня_Дъщеря -->
<g id="node8" class="node">
<title>Таня_Дъщеря</title>
<ellipse fill="#ffffff" stroke="#ffffff" cx="2017" cy="-190.8" rx="110.0404" ry="18"/>
<text text-anchor="middle" x="2017" y="-186.6" font-family="Times,serif" font-size="14.00" fill="#000000">Таня_Дъщеря</text>
</g>
<!-- Олга_Съпруга&#45;&gt;Таня_Дъщеря -->
<g id="edge9" class="edge">
<title>Олга_Съпруга-&gt;Таня_Дъщеря</title>
<path fill="none" stroke="#000000" d="M2227.1823,-246.6418C2184.8184,-235.3864 2128.2907,-220.368 2084.5284,-208.7411"/>
<polygon fill="#000000" stroke="#000000" points="2085.3933,-205.3496 2074.8298,-206.1644 2083.5958,-212.1149 2085.3933,-205.3496"/>
</g>
<!-- Иванка_Съпруга -->
<g id="node10" class="node">
<title>Иванка_Съпруга</title>
<ellipse fill="#ffffff" stroke="#ffffff" cx="2288" cy="-106" rx="167.858" ry="18"/>
<text text-anchor="middle" x="2288" y="-101.8" font-family="Times,serif" font-size="14.00" fill="#000000">Иванка_Съпруга</text>
</g>
<!-- Иванка_Дъщеря&#45;&gt;Иванка_Съпруга -->
<g id="edge12" class="edge">
<title>Иванка_Дъщеря-&gt;Иванка_Съпруга</title>
<path fill="none" stroke="#000000" d="M2288,-172.3997C2288,-161.2112 2288,-146.6983 2288,-134.0954"/>
<polygon fill="#000000" stroke="#000000" points="2291.5001,-134.0731 2288,-124.0731 2284.5001,-134.0731 2291.5001,-134.0731"/>
</g>
<!-- Таня_Съпруга -->
<g id="node14" class="node">
<title>Таня_Съпруга</title>
<ellipse fill="#ffffff" stroke="#ffffff" cx="1661" cy="-106" rx="134.3428" ry="18"/>
<text text-anchor="middle" x="1661" y="-101.8" font-family="Times,serif" font-size="14.00" fill="#000000">Таня_Съпруга</text>
</g>
<!-- Таня_Дъщеря&#45;&gt;Таня_Съпруга -->
<g id="edge17" class="edge">
<title>Таня_Дъщеря-&gt;Таня_Съпруга</title>
<path fill="none" stroke="#000000" d="M1928.687,-179.9936C1890.8994,-174.4726 1846.4762,-166.7823 1807,-156.8 1775.3465,-148.7958 1740.806,-136.9268 1713.2709,-126.6738"/>
<polygon fill="#000000" stroke="#000000" points="1714.4317,-123.371 1703.8397,-123.1236 1711.9655,-129.9222 1714.4317,-123.371"/>
</g>
<!-- Христо -->
<g id="node9" class="node">
<title>Христо</title>
<ellipse fill="#ffffff" stroke="#ffffff" cx="2042" cy="-262.8" rx="64.9006" ry="18"/>
<text text-anchor="middle" x="2042" y="-258.6" font-family="Times,serif" font-size="14.00" fill="#000000">Христо</text>
</g>
<!-- Христо&#45;&gt;Иванка_Дъщеря -->
<g id="edge10" class="edge">
<title>Христо-&gt;Иванка_Дъщеря</title>
<path fill="none" stroke="#000000" d="M2086.8341,-249.6778C2124.5048,-238.6522 2178.8778,-222.7382 2221.6001,-210.2341"/>
<polygon fill="#000000" stroke="#000000" points="2222.744,-213.5462 2231.3582,-207.3781 2220.7776,-206.8281 2222.744,-213.5462"/>
</g>
<!-- Христо&#45;&gt;Таня_Дъщеря -->
<g id="edge11" class="edge">
<title>Христо-&gt;Таня_Дъщеря</title>
<path fill="none" stroke="#000000" d="M2035.6914,-244.6314C2032.9883,-236.8463 2029.7684,-227.5729 2026.769,-218.9347"/>
<polygon fill="#000000" stroke="#000000" points="2029.98,-217.5119 2023.3935,-209.2133 2023.3673,-219.8081 2029.98,-217.5119"/>
</g>
<!-- Делян -->
<g id="node12" class="node">
<title>Делян</title>
<ellipse fill="#ffffff" stroke="#ffffff" cx="1996" cy="-34" rx="73.6138" ry="18"/>
<text text-anchor="middle" x="1996" y="-29.8" font-family="Times,serif" font-size="14.00" fill="#000000">Делян</text>
</g>
<!-- Иванка_Съпруга&#45;&gt;Делян -->
<g id="edge14" class="edge">
<title>Иванка_Съпруга-&gt;Делян</title>
<path fill="none" stroke="#000000" d="M2221.0093,-89.4817C2171.9646,-77.3885 2105.898,-61.0981 2058.0509,-49.3002"/>
<polygon fill="#000000" stroke="#000000" points="2058.6772,-45.8499 2048.1301,-46.854 2057.0013,-52.6463 2058.6772,-45.8499"/>
</g>
<!-- Велина -->
<g id="node13" class="node">
<title>Велина</title>
<ellipse fill="#ffffff" stroke="#ffffff" cx="2252" cy="-34" rx="93.8423" ry="18"/>
<text text-anchor="middle" x="2252" y="-29.8" font-family="Times,serif" font-size="14.00" fill="#000000">Велина</text>
</g>
<!-- Иванка_Съпруга&#45;&gt;Велина -->
<g id="edge16" class="edge">
<title>Иванка_Съпруга-&gt;Велина</title>
<path fill="none" stroke="#000000" d="M2278.9157,-87.8314C2274.9385,-79.8771 2270.1845,-70.369 2265.7861,-61.5723"/>
<polygon fill="#000000" stroke="#000000" points="2268.8093,-59.7923 2261.2066,-52.4133 2262.5483,-62.9228 2268.8093,-59.7923"/>
</g>
<!-- Чавдар_Съпруг -->
<g id="node11" class="node">
<title>Чавдар_Съпруг</title>
<ellipse fill="#ffffff" stroke="#ffffff" cx="1961" cy="-106" rx="141.8283" ry="18"/>
<text text-anchor="middle" x="1961" y="-101.8" font-family="Times,serif" font-size="14.00" fill="#000000">Чавдар_Съпруг</text>
</g>
<!-- Чавдар_Съпруг&#45;&gt;Делян -->
<g id="edge13" class="edge">
<title>Чавдар_Съпруг-&gt;Делян</title>
<path fill="none" stroke="#000000" d="M1969.832,-87.8314C1973.7581,-79.7547 1978.463,-70.0761 1982.7939,-61.1668"/>
<polygon fill="#000000" stroke="#000000" points="1986.0679,-62.4373 1987.2921,-51.9134 1979.7723,-59.3769 1986.0679,-62.4373"/>
</g>
<!-- Чавдар_Съпруг&#45;&gt;Велина -->
<g id="edge15" class="edge">
<title>Чавдар_Съпруг-&gt;Велина</title>
<path fill="none" stroke="#000000" d="M2025.9439,-89.9314C2073.0157,-78.2848 2136.5133,-62.574 2184.2262,-50.7688"/>
<polygon fill="#000000" stroke="#000000" points="2185.2898,-54.1112 2194.1564,-48.3118 2183.6085,-47.3161 2185.2898,-54.1112"/>
</g>
<!-- Орлин -->
<g id="node16" class="node">
<title>Орлин</title>
<ellipse fill="#ffffff" stroke="#ffffff" cx="1519" cy="-34" rx="74.7146" ry="18"/>
<text text-anchor="middle" x="1519" y="-29.8" font-family="Times,serif" font-size="14.00" fill="#000000">Орлин</text>
</g>
<!-- Таня_Съпруга&#45;&gt;Орлин -->
<g id="edge19" class="edge">
<title>Таня_Съпруга-&gt;Орлин</title>
<path fill="none" stroke="#000000" d="M1626.6258,-88.5708C1606.6058,-78.4198 1581.2357,-65.5561 1560.1562,-54.8679"/>
<polygon fill="#000000" stroke="#000000" points="1561.613,-51.6824 1551.1111,-50.2817 1558.4473,-57.9257 1561.613,-51.6824"/>
</g>
<!-- Емил_Съпруг -->
<g id="node15" class="node">
<title>Емил_Съпруг</title>
<ellipse fill="#ffffff" stroke="#ffffff" cx="1378" cy="-106" rx="130.287" ry="18"/>
<text text-anchor="middle" x="1378" y="-101.8" font-family="Times,serif" font-size="14.00" fill="#000000">Емил_Съпруг</text>
</g>
<!-- Емил_Съпруг&#45;&gt;Орлин -->
<g id="edge18" class="edge">
<title>Емил_Съпруг-&gt;Орлин</title>
<path fill="none" stroke="#000000" d="M1412.1322,-88.5708C1432.0112,-78.4198 1457.2026,-65.5561 1478.1337,-54.8679"/>
<polygon fill="#000000" stroke="#000000" points="1479.8007,-57.9466 1487.115,-50.2817 1476.6172,-51.7124 1479.8007,-57.9466"/>
</g>
<!-- Людмил_Син -->
<g id="node19" class="node">
<title>Людмил_Син</title>
<ellipse fill="#ffffff" stroke="#ffffff" cx="3560" cy="-190.8" rx="136.6285" ry="18"/>
<text text-anchor="middle" x="3560" y="-186.6" font-family="Times,serif" font-size="14.00" fill="#000000">Людмил_Син</text>
</g>
<!-- Енчо_Съпруг&#45;&gt;Людмил_Син -->
<g id="edge23" class="edge">
<title>Енчо_Съпруг-&gt;Людмил_Син</title>
<path fill="none" stroke="#000000" d="M3666.8678,-245.3708C3647.7848,-235.6263 3623.8062,-223.3819 3603.4004,-212.9619"/>
<polygon fill="#000000" stroke="#000000" points="3604.8044,-209.7489 3594.3065,-208.3182 3601.6209,-215.9832 3604.8044,-209.7489"/>
</g>
<!-- Елица_Дъщеря -->
<g id="node21" class="node">
<title>Елица_Дъщеря</title>
<ellipse fill="#ffffff" stroke="#ffffff" cx="3851" cy="-190.8" rx="115.7986" ry="18"/>
<text text-anchor="middle" x="3851" y="-186.6" font-family="Times,serif" font-size="14.00" fill="#000000">Елица_Дъщеря</text>
</g>
<!-- Енчо_Съпруг&#45;&gt;Елица_Дъщеря -->
<g id="edge24" class="edge">
<title>Енчо_Съпруг-&gt;Елица_Дъщеря</title>
<path fill="none" stroke="#000000" d="M3736.9287,-245.5542C3757.6326,-235.6164 3783.8476,-223.0332 3805.9247,-212.4362"/>
<polygon fill="#000000" stroke="#000000" points="3807.6041,-215.5124 3815.1048,-208.0297 3804.575,-209.2017 3807.6041,-215.5124"/>
</g>
<!-- Елена -->
<g id="node18" class="node">
<title>Елена</title>
<ellipse fill="#ffffff" stroke="#ffffff" cx="3482" cy="-262.8" rx="81.0987" ry="18"/>
<text text-anchor="middle" x="3482" y="-258.6" font-family="Times,serif" font-size="14.00" fill="#000000">Елена</text>
</g>
<!-- Елена&#45;&gt;Людмил_Син -->
<g id="edge21" class="edge">
<title>Елена-&gt;Людмил_Син</title>
<path fill="none" stroke="#000000" d="M3501.2809,-245.0022C3510.9373,-236.0887 3522.7824,-225.1548 3533.2984,-215.4476"/>
<polygon fill="#000000" stroke="#000000" points="3535.6965,-217.9972 3540.6706,-208.6425 3530.9485,-212.8536 3535.6965,-217.9972"/>
</g>
<!-- Людмил_Съпруг -->
<g id="node30" class="node">
<title>Людмил_Съпруг</title>
<ellipse fill="#ffffff" stroke="#ffffff" cx="3560" cy="-106" rx="147.0865" ry="18"/>
<text text-anchor="middle" x="3560" y="-101.8" font-family="Times,serif" font-size="14.00" fill="#000000">Людмил_Съпруг</text>
</g>
<!-- Людмил_Син&#45;&gt;Людмил_Съпруг -->
<g id="edge35" class="edge">
<title>Людмил_Син-&gt;Людмил_Съпруг</title>
<path fill="none" stroke="#000000" d="M3560,-172.3997C3560,-161.2112 3560,-146.6983 3560,-134.0954"/>
<polygon fill="#000000" stroke="#000000" points="3563.5001,-134.0731 3560,-124.0731 3556.5001,-134.0731 3563.5001,-134.0731"/>
</g>
<!-- Елка -->
<g id="node20" class="node">
<title>Елка</title>
<ellipse fill="#ffffff" stroke="#ffffff" cx="3903" cy="-262.8" rx="63.7161" ry="18"/>
<text text-anchor="middle" x="3903" y="-258.6" font-family="Times,serif" font-size="14.00" fill="#000000">Елка</text>
</g>
<!-- Елка&#45;&gt;Елица_Дъщеря -->
<g id="edge22" class="edge">
<title>Елка-&gt;Елица_Дъщеря</title>
<path fill="none" stroke="#000000" d="M3890.1461,-245.0022C3884.067,-236.5851 3876.6869,-226.3665 3869.9803,-217.0805"/>
<polygon fill="#000000" stroke="#000000" points="3872.7596,-214.9507 3864.0673,-208.8931 3867.0848,-219.0492 3872.7596,-214.9507"/>
</g>
<!-- Елица_Съпруга -->
<g id="node34" class="node">
<title>Елица_Съпруга</title>
<ellipse fill="#ffffff" stroke="#ffffff" cx="4339" cy="-106" rx="140.1008" ry="18"/>
<text text-anchor="middle" x="4339" y="-101.8" font-family="Times,serif" font-size="14.00" fill="#000000">Елица_Съпруга</text>
</g>
<!-- Елица_Дъщеря&#45;&gt;Елица_Съпруга -->
<g id="edge40" class="edge">
<title>Елица_Дъщеря-&gt;Елица_Съпруга</title>
<path fill="none" stroke="#000000" d="M3962.6935,-186.0298C4029.2823,-181.597 4115.1532,-173.0875 4190,-156.8 4223.0857,-149.6002 4259.0452,-137.4711 4287.3477,-126.8702"/>
<polygon fill="#000000" stroke="#000000" points="4288.9169,-130.0182 4297.022,-123.1948 4286.4309,-123.4745 4288.9169,-130.0182"/>
</g>
<!-- Жана_Дъщеря -->
<g id="node24" class="node">
<title>Жана_Дъщеря</title>
<ellipse fill="#ffffff" stroke="#ffffff" cx="2953" cy="-190.8" rx="114.6975" ry="18"/>
<text text-anchor="middle" x="2953" y="-186.6" font-family="Times,serif" font-size="14.00" fill="#000000">Жана_Дъщеря</text>
</g>
<!-- Петър_Съпруг&#45;&gt;Жана_Дъщеря -->
<g id="edge27" class="edge">
<title>Петър_Съпруг-&gt;Жана_Дъщеря</title>
<path fill="none" stroke="#000000" d="M3194.3796,-247.9689C3145.6578,-236.4295 3077.9338,-220.3896 3026.6183,-208.2359"/>
<polygon fill="#000000" stroke="#000000" points="3027.1219,-204.7584 3016.5845,-205.8595 3025.5086,-211.57 3027.1219,-204.7584"/>
</g>
<!-- Йонка_Дъшеря -->
<g id="node25" class="node">
<title>Йонка_Дъшеря</title>
<ellipse fill="#ffffff" stroke="#ffffff" cx="3230" cy="-190.8" rx="128.585" ry="18"/>
<text text-anchor="middle" x="3230" y="-186.6" font-family="Times,serif" font-size="14.00" fill="#000000">Йонка_Дъшеря</text>
</g>
<!-- Петър_Съпруг&#45;&gt;Йонка_Дъшеря -->
<g id="edge29" class="edge">
<title>Петър_Съпруг-&gt;Йонка_Дъшеря</title>
<path fill="none" stroke="#000000" d="M3250.1868,-244.6314C3247.2356,-236.7617 3243.7142,-227.3712 3240.445,-218.6533"/>
<polygon fill="#000000" stroke="#000000" points="3243.6934,-217.3476 3236.905,-209.2133 3237.1391,-219.8055 3243.6934,-217.3476"/>
</g>
<!-- Маргарита_1_Съпруга -->
<g id="node23" class="node">
<title>Маргарита_1_Съпруга</title>
<ellipse fill="#ffffff" stroke="#ffffff" cx="2945" cy="-262.8" rx="183.5133" ry="18"/>
<text text-anchor="middle" x="2945" y="-258.6" font-family="Times,serif" font-size="14.00" fill="#000000">Маргарита_1_Съпруга</text>
</g>
<!-- Маргарита_1_Съпруга&#45;&gt;Жана_Дъщеря -->
<g id="edge26" class="edge">
<title>Маргарита_1_Съпруга-&gt;Жана_Дъщеря</title>
<path fill="none" stroke="#000000" d="M2947.0187,-244.6314C2947.8743,-236.931 2948.8917,-227.7743 2949.8426,-219.2166"/>
<polygon fill="#000000" stroke="#000000" points="2953.3283,-219.5386 2950.9541,-209.2133 2946.3711,-218.7656 2953.3283,-219.5386"/>
</g>
<!-- Маргарита_1_Съпруга&#45;&gt;Йонка_Дъшеря -->
<g id="edge28" class="edge">
<title>Маргарита_1_Съпруга-&gt;Йонка_Дъшеря</title>
<path fill="none" stroke="#000000" d="M3011.4602,-246.0101C3055.1946,-234.9614 3112.4431,-220.4986 3157.3747,-209.1474"/>
<polygon fill="#000000" stroke="#000000" points="3158.5086,-212.471 3167.3467,-206.6282 3156.794,-205.6842 3158.5086,-212.471"/>
</g>
<!-- Жана_Съпруга -->
<g id="node26" class="node">
<title>Жана_Съпруга</title>
<ellipse fill="#ffffff" stroke="#ffffff" cx="2953" cy="-106" rx="139.5001" ry="18"/>
<text text-anchor="middle" x="2953" y="-101.8" font-family="Times,serif" font-size="14.00" fill="#000000">Жана_Съпруга</text>
</g>
<!-- Жана_Дъщеря&#45;&gt;Жана_Съпруга -->
<g id="edge30" class="edge">
<title>Жана_Дъщеря-&gt;Жана_Съпруга</title>
<path fill="none" stroke="#000000" d="M2953,-172.3997C2953,-161.2112 2953,-146.6983 2953,-134.0954"/>
<polygon fill="#000000" stroke="#000000" points="2956.5001,-134.0731 2953,-124.0731 2949.5001,-134.0731 2956.5001,-134.0731"/>
</g>
<!-- Йоанна_Дъщеря -->
<g id="node27" class="node">
<title>Йоанна_Дъщеря</title>
<ellipse fill="#ffffff" stroke="#ffffff" cx="2626" cy="-34" rx="146.4678" ry="18"/>
<text text-anchor="middle" x="2626" y="-29.8" font-family="Times,serif" font-size="14.00" fill="#000000">Йоанна_Дъщеря</text>
</g>
<!-- Жана_Съпруга&#45;&gt;Йоанна_Дъщеря -->
<g id="edge31" class="edge">
<title>Жана_Съпруга-&gt;Йоанна_Дъщеря</title>
<path fill="none" stroke="#000000" d="M2882.4485,-90.4657C2831.0139,-79.1407 2761.2026,-63.7694 2707.4047,-51.924"/>
<polygon fill="#000000" stroke="#000000" points="2708.0726,-48.4873 2697.5539,-49.755 2706.5673,-55.3235 2708.0726,-48.4873"/>
</g>
<!-- Александър_Син -->
<g id="node29" class="node">
<title>Александър_Син</title>
<ellipse fill="#ffffff" stroke="#ffffff" cx="2962" cy="-34" rx="171.3709" ry="18"/>
<text text-anchor="middle" x="2962" y="-29.8" font-family="Times,serif" font-size="14.00" fill="#000000">Александър_Син</text>
</g>
<!-- Жана_Съпруга&#45;&gt;Александър_Син -->
<g id="edge33" class="edge">
<title>Жана_Съпруга-&gt;Александър_Син</title>
<path fill="none" stroke="#000000" d="M2955.2711,-87.8314C2956.2336,-80.131 2957.3782,-70.9743 2958.4479,-62.4166"/>
<polygon fill="#000000" stroke="#000000" points="2961.9309,-62.7702 2959.6983,-52.4133 2954.9849,-61.9019 2961.9309,-62.7702"/>
</g>
<!-- Юлиан_Съпруг -->
<g id="node28" class="node">
<title>Юлиан_Съпруг</title>
<ellipse fill="#ffffff" stroke="#ffffff" cx="2634" cy="-106" rx="145.3374" ry="18"/>
<text text-anchor="middle" x="2634" y="-101.8" font-family="Times,serif" font-size="14.00" fill="#000000">Юлиан_Съпруг</text>
</g>
<!-- Юлиан_Съпруг&#45;&gt;Йоанна_Дъщеря -->
<g id="edge32" class="edge">
<title>Юлиан_Съпруг-&gt;Йоанна_Дъщеря</title>
<path fill="none" stroke="#000000" d="M2631.9813,-87.8314C2631.1257,-80.131 2630.1083,-70.9743 2629.1574,-62.4166"/>
<polygon fill="#000000" stroke="#000000" points="2632.6289,-61.9656 2628.0459,-52.4133 2625.6717,-62.7386 2632.6289,-61.9656"/>
</g>
<!-- Юлиан_Съпруг&#45;&gt;Александър_Син -->
<g id="edge34" class="edge">
<title>Юлиан_Съпруг-&gt;Александър_Син</title>
<path fill="none" stroke="#000000" d="M2705.5757,-90.2883C2756.4158,-79.1282 2824.8503,-64.106 2878.2342,-52.3876"/>
<polygon fill="#000000" stroke="#000000" points="2879.0024,-55.8024 2888.0194,-50.2396 2877.5015,-48.9652 2879.0024,-55.8024"/>
</g>
<!-- Зорница_Дъщеря -->
<g id="node32" class="node">
<title>Зорница_Дъщеря</title>
<ellipse fill="#ffffff" stroke="#ffffff" cx="3294" cy="-34" rx="137.2548" ry="18"/>
<text text-anchor="middle" x="3294" y="-29.8" font-family="Times,serif" font-size="14.00" fill="#000000">Зорница_Дъщеря</text>
</g>
<!-- Людмил_Съпруг&#45;&gt;Зорница_Дъщеря -->
<g id="edge37" class="edge">
<title>Людмил_Съпруг-&gt;Зорница_Дъщеря</title>
<path fill="none" stroke="#000000" d="M3499.3076,-89.572C3458.9926,-78.6597 3405.9427,-64.3003 3363.8682,-52.9117"/>
<polygon fill="#000000" stroke="#000000" points="3364.5399,-49.4676 3353.9728,-50.2332 3362.711,-56.2245 3364.5399,-49.4676"/>
</g>
<!-- Антон_Син -->
<g id="node33" class="node">
<title>Антон_Син</title>
<ellipse fill="#ffffff" stroke="#ffffff" cx="3578" cy="-34" rx="128.5419" ry="18"/>
<text text-anchor="middle" x="3578" y="-29.8" font-family="Times,serif" font-size="14.00" fill="#000000">Антон_Син</text>
</g>
<!-- Людмил_Съпруг&#45;&gt;Антон_Син -->
<g id="edge39" class="edge">
<title>Людмил_Съпруг-&gt;Антон_Син</title>
<path fill="none" stroke="#000000" d="M3564.5422,-87.8314C3566.4884,-80.0463 3568.8068,-70.7729 3570.9663,-62.1347"/>
<polygon fill="#000000" stroke="#000000" points="3574.3668,-62.9636 3573.3967,-52.4133 3567.5758,-61.2658 3574.3668,-62.9636"/>
</g>
<!-- НН_Съпруга -->
<g id="node31" class="node">
<title>НН_Съпруга</title>
<ellipse fill="#ffffff" stroke="#ffffff" cx="3287" cy="-106" rx="107.7297" ry="18"/>
<text text-anchor="middle" x="3287" y="-101.8" font-family="Times,serif" font-size="14.00" fill="#000000">НН_Съпруга</text>
</g>
<!-- НН_Съпруга&#45;&gt;Зорница_Дъщеря -->
<g id="edge36" class="edge">
<title>НН_Съпруга-&gt;Зорница_Дъщеря</title>
<path fill="none" stroke="#000000" d="M3288.7664,-87.8314C3289.515,-80.131 3290.4053,-70.9743 3291.2373,-62.4166"/>
<polygon fill="#000000" stroke="#000000" points="3294.7256,-62.7051 3292.2098,-52.4133 3287.7585,-62.0276 3294.7256,-62.7051"/>
</g>
<!-- НН_Съпруга&#45;&gt;Антон_Син -->
<g id="edge38" class="edge">
<title>НН_Съпруга-&gt;Антон_Син</title>
<path fill="none" stroke="#000000" d="M3347.6489,-90.9941C3393.3862,-79.6777 3456.3179,-64.1069 3504.8469,-52.0997"/>
<polygon fill="#000000" stroke="#000000" points="3505.7948,-55.4708 3514.6615,-49.6714 3504.1135,-48.6757 3505.7948,-55.4708"/>
</g>
<!-- 1 -->
<g id="node35" class="node">
<title>1</title>
<ellipse fill="#ffffff" stroke="#ffffff" cx="3981" cy="-34" rx="27" ry="18"/>
<text text-anchor="middle" x="3981" y="-29.8" font-family="Times,serif" font-size="14.00" fill="#000000">1</text>
</g>
<!-- Елица_Съпруга&#45;&gt;1 -->
<g id="edge41" class="edge">
<title>Елица_Съпруга-&gt;1</title>
<path fill="none" stroke="#000000" d="M4263.5149,-90.8186C4187.8107,-75.5932 4074.4695,-52.7983 4017.0745,-41.2552"/>
<polygon fill="#000000" stroke="#000000" points="4017.5241,-37.7756 4007.0303,-39.2352 4016.1439,-44.6382 4017.5241,-37.7756"/>
</g>
<!-- 2 -->
<g id="node38" class="node">
<title>2</title>
<ellipse fill="#ffffff" stroke="#ffffff" cx="4243" cy="-34" rx="27" ry="18"/>
<text text-anchor="middle" x="4243" y="-29.8" font-family="Times,serif" font-size="14.00" fill="#000000">2</text>
</g>
<!-- Елица_Съпруга&#45;&gt;2 -->
<g id="edge43" class="edge">
<title>Елица_Съпруга-&gt;2</title>
<path fill="none" stroke="#000000" d="M4315.2697,-88.2022C4301.2524,-77.6893 4283.488,-64.366 4269.0795,-53.5596"/>
<polygon fill="#000000" stroke="#000000" points="4271.1375,-50.7282 4261.0375,-47.5281 4266.9375,-56.3282 4271.1375,-50.7282"/>
</g>
<!-- _Син -->
<g id="node36" class="node">
<title>_Син</title>
<ellipse fill="#ffffff" stroke="#ffffff" cx="4120" cy="-106" rx="60.8448" ry="18"/>
<text text-anchor="middle" x="4120" y="-101.8" font-family="Times,serif" font-size="14.00" fill="#000000">_Син</text>
</g>
<!-- Красимир_Съпруг -->
<g id="node37" class="node">
<title>Красимир_Съпруг</title>
<ellipse fill="#ffffff" stroke="#ffffff" cx="3886" cy="-106" rx="155.1729" ry="18"/>
<text text-anchor="middle" x="3886" y="-101.8" font-family="Times,serif" font-size="14.00" fill="#000000">Красимир_Съпруг</text>
</g>
<!-- Красимир_Съпруг&#45;&gt;1 -->
<g id="edge42" class="edge">
<title>Красимир_Съпруг-&gt;1</title>
<path fill="none" stroke="#000000" d="M3909.4832,-88.2022C3923.2247,-77.7876 3940.6055,-64.6148 3954.7915,-53.8633"/>
<polygon fill="#000000" stroke="#000000" points="3957.2948,-56.3577 3963.1504,-47.5281 3953.0666,-50.7789 3957.2948,-56.3577"/>
</g>
<!-- Красимир_Съпруг&#45;&gt;2 -->
<g id="edge44" class="edge">
<title>Красимир_Съпруг-&gt;2</title>
<path fill="none" stroke="#000000" d="M3963.4637,-90.3771C4038.9484,-75.1533 4150.3768,-52.6803 4207.0526,-41.2499"/>
<polygon fill="#000000" stroke="#000000" points="4207.8664,-44.6563 4216.977,-39.2483 4206.4824,-37.7945 4207.8664,-44.6563"/>
</g>
<!-- Иван_Съпруг -->
<g id="node39" class="node">
<title>Иван_Съпруг</title>
<ellipse fill="#ffffff" stroke="#ffffff" cx="852" cy="-419.6" rx="129.6858" ry="18"/>
<text text-anchor="middle" x="852" y="-415.4" font-family="Times,serif" font-size="14.00" fill="#000000">Иван_Съпруг</text>
</g>
<!-- Живко_Син -->
<g id="node40" class="node">
<title>Живко_Син</title>
<ellipse fill="#ffffff" stroke="#ffffff" cx="555" cy="-347.6" rx="126.2312" ry="18"/>
<text text-anchor="middle" x="555" y="-343.4" font-family="Times,serif" font-size="14.00" fill="#000000">Живко_Син</text>
</g>
<!-- Иван_Съпруг&#45;&gt;Живко_Син -->
<g id="edge45" class="edge">
<title>Иван_Съпруг-&gt;Живко_Син</title>
<path fill="none" stroke="#000000" d="M787.5554,-403.9771C740.8696,-392.6593 677.6571,-377.3351 628.92,-365.52"/>
<polygon fill="#000000" stroke="#000000" points="629.6064,-362.0851 619.0632,-363.1305 627.9571,-368.888 629.6064,-362.0851"/>
</g>
<!-- Маргарита_2_Дъщеря -->
<g id="node42" class="node">
<title>Маргарита_2_Дъщеря</title>
<ellipse fill="#ffffff" stroke="#ffffff" cx="858" cy="-347.6" rx="159.211" ry="18"/>
<text text-anchor="middle" x="858" y="-343.4" font-family="Times,serif" font-size="14.00" fill="#000000">Маргарита_2_Дъщеря</text>
</g>
<!-- Иван_Съпруг&#45;&gt;Маргарита_2_Дъщеря -->
<g id="edge47" class="edge">
<title>Иван_Съпруг-&gt;Маргарита_2_Дъщеря</title>
<path fill="none" stroke="#000000" d="M853.5141,-401.4314C854.1558,-393.731 854.9188,-384.5743 855.6319,-376.0166"/>
<polygon fill="#000000" stroke="#000000" points="859.1229,-376.2694 856.4656,-366.0133 852.1471,-375.688 859.1229,-376.2694"/>
</g>
<!-- Живко_Съпруг -->
<g id="node43" class="node">
<title>Живко_Съпруг</title>
<ellipse fill="#ffffff" stroke="#ffffff" cx="555" cy="-262.8" rx="137.1889" ry="18"/>
<text text-anchor="middle" x="555" y="-258.6" font-family="Times,serif" font-size="14.00" fill="#000000">Живко_Съпруг</text>
</g>
<!-- Живко_Син&#45;&gt;Живко_Съпруг -->
<g id="edge49" class="edge">
<title>Живко_Син-&gt;Живко_Съпруг</title>
<path fill="none" stroke="#000000" d="M555,-329.1997C555,-318.0112 555,-303.4983 555,-290.8954"/>
<polygon fill="#000000" stroke="#000000" points="558.5001,-290.8731 555,-280.8731 551.5001,-290.8731 558.5001,-290.8731"/>
</g>
<!-- Жена_Иван -->
<g id="node41" class="node">
<title>Жена_Иван</title>
<ellipse fill="#ffffff" stroke="#ffffff" cx="569" cy="-419.6" rx="129.1684" ry="18"/>
<text text-anchor="middle" x="569" y="-415.4" font-family="Times,serif" font-size="14.00" fill="#000000">Жена_Иван</text>
</g>
<!-- Жена_Иван&#45;&gt;Живко_Син -->
<g id="edge46" class="edge">
<title>Жена_Иван-&gt;Живко_Син</title>
<path fill="none" stroke="#000000" d="M565.4672,-401.4314C563.9699,-393.731 562.1895,-384.5743 560.5255,-376.0166"/>
<polygon fill="#000000" stroke="#000000" points="563.9248,-375.1614 558.5804,-366.0133 557.0535,-376.4975 563.9248,-375.1614"/>
</g>
<!-- Жена_Иван&#45;&gt;Маргарита_2_Дъщеря -->
<g id="edge48" class="edge">
<title>Жена_Иван-&gt;Маргарита_2_Дъщеря</title>
<path fill="none" stroke="#000000" d="M632.4223,-403.7993C676.5546,-392.8044 735.605,-378.0929 782.2189,-366.4797"/>
<polygon fill="#000000" stroke="#000000" points="783.1099,-369.8648 791.9672,-364.0511 781.4176,-363.0724 783.1099,-369.8648"/>
</g>
<!-- Маргарита_2_Съпруга -->
<g id="node46" class="node">
<title>Маргарита_2_Съпруга</title>
<ellipse fill="#ffffff" stroke="#ffffff" cx="1060" cy="-262.8" rx="183.5133" ry="18"/>
<text text-anchor="middle" x="1060" y="-258.6" font-family="Times,serif" font-size="14.00" fill="#000000">Маргарита_2_Съпруга</text>
</g>
<!-- Маргарита_2_Дъщеря&#45;&gt;Маргарита_2_Съпруга -->
<g id="edge52" class="edge">
<title>Маргарита_2_Дъщеря-&gt;Маргарита_2_Съпруга</title>
<path fill="none" stroke="#000000" d="M899.8545,-330.0294C931.5434,-316.7263 975.2259,-298.3883 1008.9649,-284.2246"/>
<polygon fill="#000000" stroke="#000000" points="1010.3334,-287.4461 1018.1991,-280.3481 1007.6238,-280.9918 1010.3334,-287.4461"/>
</g>
<!-- Иван_Син -->
<g id="node44" class="node">
<title>Иван_Син</title>
<ellipse fill="#ffffff" stroke="#ffffff" cx="381" cy="-190.8" rx="118.7282" ry="18"/>
<text text-anchor="middle" x="381" y="-186.6" font-family="Times,serif" font-size="14.00" fill="#000000">Иван_Син</text>
</g>
<!-- Живко_Съпруг&#45;&gt;Иван_Син -->
<g id="edge50" class="edge">
<title>Живко_Съпруг-&gt;Иван_Син</title>
<path fill="none" stroke="#000000" d="M513.3227,-245.5542C488.6983,-235.3648 457.3531,-222.3944 431.352,-211.6353"/>
<polygon fill="#000000" stroke="#000000" points="432.6152,-208.3702 422.0367,-207.7807 429.9387,-214.8384 432.6152,-208.3702"/>
</g>
<!-- Антоанета_Съпруга -->
<g id="node45" class="node">
<title>Антоанета_Съпруга</title>
<ellipse fill="#ffffff" stroke="#ffffff" cx="208" cy="-262.8" rx="192.2261" ry="18"/>
<text text-anchor="middle" x="208" y="-258.6" font-family="Times,serif" font-size="14.00" fill="#000000">Антоанета_Съпруга</text>
</g>
<!-- Антоанета_Съпруга&#45;&gt;Иван_Син -->
<g id="edge51" class="edge">
<title>Антоанета_Съпруга-&gt;Иван_Син</title>
<path fill="none" stroke="#000000" d="M250.3206,-245.1868C274.6244,-235.0719 305.2889,-222.3098 330.8046,-211.6906"/>
<polygon fill="#000000" stroke="#000000" points="332.4202,-214.8093 340.3077,-207.7355 329.7305,-208.3466 332.4202,-214.8093"/>
</g>
<!-- Звездомир_Син -->
<g id="node48" class="node">
<title>Звездомир_Син</title>
<ellipse fill="#ffffff" stroke="#ffffff" cx="1062" cy="-190.8" rx="173.9853" ry="18"/>
<text text-anchor="middle" x="1062" y="-186.6" font-family="Times,serif" font-size="14.00" fill="#000000">Звездомир_Син</text>
</g>
<!-- Маргарита_2_Съпруга&#45;&gt;Звездомир_Син -->
<g id="edge54" class="edge">
<title>Маргарита_2_Съпруга-&gt;Звездомир_Син</title>
<path fill="none" stroke="#000000" d="M1060.5047,-244.6314C1060.7186,-236.931 1060.9729,-227.7743 1061.2106,-219.2166"/>
<polygon fill="#000000" stroke="#000000" points="1064.7094,-219.3066 1061.4885,-209.2133 1057.7121,-219.1122 1064.7094,-219.3066"/>
</g>
<!-- Емил_Син -->
<g id="node49" class="node">
<title>Емил_Син</title>
<ellipse fill="#ffffff" stroke="#ffffff" cx="1378" cy="-190.8" rx="119.8294" ry="18"/>
<text text-anchor="middle" x="1378" y="-186.6" font-family="Times,serif" font-size="14.00" fill="#000000">Емил_Син</text>
</g>
<!-- Маргарита_2_Съпруга&#45;&gt;Емил_Син -->
<g id="edge56" class="edge">
<title>Маргарита_2_Съпруга-&gt;Емил_Син</title>
<path fill="none" stroke="#000000" d="M1132.9556,-246.2817C1183.4105,-234.858 1250.4074,-219.6889 1301.5943,-208.0994"/>
<polygon fill="#000000" stroke="#000000" points="1302.6311,-211.4533 1311.6113,-205.8314 1301.0852,-204.6261 1302.6311,-211.4533"/>
</g>
<!-- Петър_2_Съпруг -->
<g id="node47" class="node">
<title>Петър_2_Съпруг</title>
<ellipse fill="#ffffff" stroke="#ffffff" cx="1381" cy="-262.8" rx="119.8719" ry="18"/>
<text text-anchor="middle" x="1381" y="-258.6" font-family="Times,serif" font-size="14.00" fill="#000000">Петър_2_Съпруг</text>
</g>
<!-- Петър_2_Съпруг&#45;&gt;Звездомир_Син -->
<g id="edge53" class="edge">
<title>Петър_2_Съпруг-&gt;Звездомир_Син</title>
<path fill="none" stroke="#000000" d="M1314.5154,-247.7941C1265.1115,-236.6434 1197.4066,-221.362 1144.5388,-209.4294"/>
<polygon fill="#000000" stroke="#000000" points="1145.0359,-205.9537 1134.5107,-207.1661 1143.4947,-212.7819 1145.0359,-205.9537"/>
</g>
<!-- Петър_2_Съпруг&#45;&gt;Емил_Син -->
<g id="edge55" class="edge">
<title>Петър_2_Съпруг-&gt;Емил_Син</title>
<path fill="none" stroke="#000000" d="M1380.243,-244.6314C1379.9221,-236.931 1379.5406,-227.7743 1379.184,-219.2166"/>
<polygon fill="#000000" stroke="#000000" points="1382.6806,-219.0589 1378.7672,-209.2133 1375.6867,-219.3503 1382.6806,-219.0589"/>
</g>
<!-- Емил_Син&#45;&gt;Емил_Съпруг -->
<g id="edge57" class="edge">
<title>Емил_Син-&gt;Емил_Съпруг</title>
<path fill="none" stroke="#000000" d="M1378,-172.3997C1378,-161.2112 1378,-146.6983 1378,-134.0954"/>
<polygon fill="#000000" stroke="#000000" points="1381.5001,-134.0731 1378,-124.0731 1374.5001,-134.0731 1381.5001,-134.0731"/>
</g>
<!-- Михаил_Съпруг -->
<g id="node50" class="node">
<title>Михаил_Съпруг</title>
<ellipse fill="#ffffff" stroke="#ffffff" cx="1716" cy="-419.6" rx="140.7021" ry="18"/>
<text text-anchor="middle" x="1716" y="-415.4" font-family="Times,serif" font-size="14.00" fill="#000000">Михаил_Съпруг</text>
</g>
<!-- Благовестка_Дъщеря -->
<g id="node51" class="node">
<title>Благовестка_Дъщеря</title>
<ellipse fill="#ffffff" stroke="#ffffff" cx="1228" cy="-347.6" rx="186.9683" ry="18"/>
<text text-anchor="middle" x="1228" y="-343.4" font-family="Times,serif" font-size="14.00" fill="#000000">Благовестка_Дъщеря</text>
</g>
<!-- Михаил_Съпруг&#45;&gt;Благовестка_Дъщеря -->
<g id="edge58" class="edge">
<title>Михаил_Съпруг-&gt;Благовестка_Дъщеря</title>
<path fill="none" stroke="#000000" d="M1623.6372,-405.9727C1543.2336,-394.1099 1426.4345,-376.8772 1340.5776,-364.2098"/>
<polygon fill="#000000" stroke="#000000" points="1340.9329,-360.7244 1330.5291,-362.7272 1339.9111,-367.6494 1340.9329,-360.7244"/>
</g>
<!-- Петър_2_Син -->
<g id="node53" class="node">
<title>Петър_2_Син</title>
<ellipse fill="#ffffff" stroke="#ffffff" cx="1542" cy="-347.6" rx="109.4145" ry="18"/>
<text text-anchor="middle" x="1542" y="-343.4" font-family="Times,serif" font-size="14.00" fill="#000000">Петър_2_Син</text>
</g>
<!-- Михаил_Съпруг&#45;&gt;Петър_2_Син -->
<g id="edge60" class="edge">
<title>Михаил_Съпруг-&gt;Петър_2_Син</title>
<path fill="none" stroke="#000000" d="M1674.3227,-402.3542C1649.5192,-392.0907 1617.8968,-379.0056 1591.7855,-368.2009"/>
<polygon fill="#000000" stroke="#000000" points="1593.0162,-364.9224 1582.4378,-364.3329 1590.3397,-371.3905 1593.0162,-364.9224"/>
</g>
<!-- Цветанка_Дъщеря -->
<g id="node54" class="node">
<title>Цветанка_Дъщеря</title>
<ellipse fill="#ffffff" stroke="#ffffff" cx="1832" cy="-347.6" rx="162.6833" ry="18"/>
<text text-anchor="middle" x="1832" y="-343.4" font-family="Times,serif" font-size="14.00" fill="#000000">Цветанка_Дъщеря</text>
</g>
<!-- Михаил_Съпруг&#45;&gt;Цветанка_Дъщеря -->
<g id="edge62" class="edge">
<title>Михаил_Съпруг-&gt;Цветанка_Дъщеря</title>
<path fill="none" stroke="#000000" d="M1744.6742,-401.8022C1759.732,-392.456 1778.3686,-380.8884 1794.553,-370.843"/>
<polygon fill="#000000" stroke="#000000" points="1796.603,-373.69 1803.2537,-365.4425 1792.9115,-367.7425 1796.603,-373.69"/>
</g>
<!-- Ангелина_Съпруга -->
<g id="node52" class="node">
<title>Ангелина_Съпруга</title>
<ellipse fill="#ffffff" stroke="#ffffff" cx="1357" cy="-419.6" rx="200.3126" ry="18"/>
<text text-anchor="middle" x="1357" y="-415.4" font-family="Times,serif" font-size="14.00" fill="#000000">Ангелина_Съпруга</text>
</g>
<!-- Ангелина_Съпруга&#45;&gt;Благовестка_Дъщеря -->
<g id="edge59" class="edge">
<title>Ангелина_Съпруга-&gt;Благовестка_Дъщеря</title>
<path fill="none" stroke="#000000" d="M1325.1124,-401.8022C1308.2119,-392.3694 1287.2577,-380.674 1269.1445,-370.5643"/>
<polygon fill="#000000" stroke="#000000" points="1270.4057,-367.2601 1259.9679,-365.4425 1266.9941,-373.3725 1270.4057,-367.2601"/>
</g>
<!-- Ангелина_Съпруга&#45;&gt;Петър_2_Син -->
<g id="edge61" class="edge">
<title>Ангелина_Съпруга-&gt;Петър_2_Син</title>
<path fill="none" stroke="#000000" d="M1402.2561,-401.9868C1428.6662,-391.7083 1462.0998,-378.6963 1489.6425,-367.977"/>
<polygon fill="#000000" stroke="#000000" points="1491.0681,-371.178 1499.1178,-364.2893 1488.5292,-364.6546 1491.0681,-371.178"/>
</g>
<!-- Ангелина_Съпруга&#45;&gt;Цветанка_Дъщеря -->
<g id="edge63" class="edge">
<title>Ангелина_Съпруга-&gt;Цветанка_Дъщеря</title>
<path fill="none" stroke="#000000" d="M1459.1911,-404.11C1537.8968,-392.1799 1646.3531,-375.7402 1725.9982,-363.6676"/>
<polygon fill="#000000" stroke="#000000" points="1726.6923,-367.1025 1736.0548,-362.1433 1725.6432,-360.1816 1726.6923,-367.1025"/>
</g>
<!-- Петър_2_Син&#45;&gt;Петър_2_Съпруг -->
<g id="edge64" class="edge">
<title>Петър_2_Син-&gt;Петър_2_Съпруг</title>
<path fill="none" stroke="#000000" d="M1509.0307,-330.2348C1484.1778,-317.1446 1449.9079,-299.0944 1423.0775,-284.9626"/>
<polygon fill="#000000" stroke="#000000" points="1424.404,-281.7055 1413.9252,-280.142 1421.1419,-287.8989 1424.404,-281.7055"/>
</g>
<!-- Петър_3_Син -->
<g id="node55" class="node">
<title>Петър_3_Син</title>
<ellipse fill="#ffffff" stroke="#ffffff" cx="3347" cy="-576.4" rx="109.4145" ry="18"/>
<text text-anchor="middle" x="3347" y="-572.2" font-family="Times,serif" font-size="14.00" fill="#000000">Петър_3_Син</text>
</g>
<!-- Петър_3_Съпруг -->
<g id="node56" class="node">
<title>Петър_3_Съпруг</title>
<ellipse fill="#ffffff" stroke="#ffffff" cx="3347" cy="-504.4" rx="119.8719" ry="18"/>
<text text-anchor="middle" x="3347" y="-500.2" font-family="Times,serif" font-size="14.00" fill="#000000">Петър_3_Съпруг</text>
</g>
<!-- Петър_3_Син&#45;&gt;Петър_3_Съпруг -->
<g id="edge65" class="edge">
<title>Петър_3_Син-&gt;Петър_3_Съпруг</title>
<path fill="none" stroke="#000000" d="M3347,-558.2314C3347,-550.531 3347,-541.3743 3347,-532.8166"/>
<polygon fill="#000000" stroke="#000000" points="3350.5001,-532.8132 3347,-522.8133 3343.5001,-532.8133 3350.5001,-532.8132"/>
</g>
<!-- Петър_3_Съпруг&#45;&gt;Димитър -->
<g id="edge66" class="edge">
<title>Петър_3_Съпруг-&gt;Димитър</title>
<path fill="none" stroke="#000000" d="M3347,-485.9997C3347,-474.8112 3347,-460.2983 3347,-447.6954"/>
<polygon fill="#000000" stroke="#000000" points="3350.5001,-447.6731 3347,-437.6731 3343.5001,-447.6731 3350.5001,-447.6731"/>
</g>
</g>
</svg>