<?xml version="1.0" encoding="UTF-8" standalone="no"?>
<!DOCTYPE svg PUBLIC "-//W3C//DTD SVG 1.1//EN" "http://www.w3.org/Graphics/SVG/1.1/DTD/svg11.dtd">
<!-- Generated by graphviz version 2.40.1 (20161225.0304)
 -->
<!-- Title: G Pages: 1 -->
<svg width="2988pt" height="486pt" viewBox="0.00 0.00 2988.00 486.40" xmlns="http://www.w3.org/2000/svg" xmlns:xlink="http://www.w3.org/1999/xlink">
<g id="graph0" class="graph" transform="scale(1 1) rotate(0) translate(4 482.4)">
<title>G</title>
<polygon fill="#ffffff" stroke="transparent" points="-4,4 -4,-482.4 2984,-482.4 2984,4 -4,4"/>
<g id="clust1" class="cluster">
<title>cluster_1</title>
<polygon fill="#d3d3d3" stroke="#d3d3d3" points="1384,-321.6 1384,-470.4 2078,-470.4 2078,-321.6 1384,-321.6"/>
<text text-anchor="middle" x="1731" y="-453.8" font-family="Times,serif" font-size="14.00" fill="#000000">Максимови</text>
</g>
<g id="clust2" class="cluster">
<title>cluster_2</title>
<polygon fill="#d3d3d3" stroke="#d3d3d3" points="385,-164.8 385,-313.6 925,-313.6 925,-164.8 385,-164.8"/>
<text text-anchor="middle" x="655" y="-297" font-family="Times,serif" font-size="14.00" fill="#000000">Цоневи</text>
</g>
<g id="clust3" class="cluster">
<title>cluster_3</title>
<polygon fill="#d3d3d3" stroke="#d3d3d3" points="8,-8 8,-156.8 378,-156.8 378,-8 8,-8"/>
<text text-anchor="middle" x="193" y="-140.2" font-family="Times,serif" font-size="14.00" fill="#000000">Спасови</text>
</g>
<g id="clust4" class="cluster">
<title>cluster_4</title>
<polygon fill="#d3d3d3" stroke="#d3d3d3" points="386,-8 386,-156.8 949,-156.8 949,-8 386,-8"/>
<text text-anchor="middle" x="667.5" y="-140.2" font-family="Times,serif" font-size="14.00" fill="#000000">Димитрови</text>
</g>
<g id="clust5" class="cluster">
<title>cluster_5</title>
<polygon fill="#d3d3d3" stroke="#d3d3d3" points="1878,-164.8 1878,-313.6 2460,-313.6 2460,-164.8 1878,-164.8"/>
<text text-anchor="middle" x="2169" y="-297" font-family="Times,serif" font-size="14.00" fill="#000000">Максимови</text>
</g>
<g id="clust6" class="cluster">
<title>cluster_6</title>
<polygon fill="#d3d3d3" stroke="#d3d3d3" points="1250,-164.8 1250,-313.6 1852,-313.6 1852,-164.8 1250,-164.8"/>
<text text-anchor="middle" x="1551" y="-297" font-family="Times,serif" font-size="14.00" fill="#000000">Максимови</text>
</g>
<g id="clust7" class="cluster">
<title>cluster_7</title>
<polygon fill="#d3d3d3" stroke="#d3d3d3" points="957,-8 957,-156.8 1626,-156.8 1626,-8 957,-8"/>
<text text-anchor="middle" x="1291.5" y="-140.2" font-family="Times,serif" font-size="14.00" fill="#000000">Максимови</text>
</g>
<g id="clust8" class="cluster">
<title>cluster_8</title>
<polygon fill="#d3d3d3" stroke="#d3d3d3" points="1634,-8 1634,-156.8 2200,-156.8 2200,-8 1634,-8"/>
<text text-anchor="middle" x="1917" y="-140.2" font-family="Times,serif" font-size="14.00" fill="#000000">Максимови</text>
</g>
<g id="clust9" class="cluster">
<title>cluster_9</title>
<polygon fill="#d3d3d3" stroke="#d3d3d3" points="2208,-8 2208,-156.8 2972,-156.8 2972,-8 2208,-8"/>
<text text-anchor="middle" x="2590" y="-140.2" font-family="Times,serif" font-size="14.00" fill="#000000">Максимови</text>
</g>
<!-- Димитър -->
<g id="node1" class="node">
<title>Димитър</title>
<ellipse fill="#ffffff" stroke="#ffffff" cx="1824" cy="-419.6" rx="82.8012" ry="18"/>
<text text-anchor="middle" x="1824" y="-415.4" font-family="Times,serif" font-size="14.00" fill="#000000">Димитър</text>
</g>
<!-- Олга_Дъщеря -->
<g id="node2" class="node">
<title>Олга_Дъщеря</title>
<ellipse fill="#ffffff" stroke="#ffffff" cx="1504" cy="-347.6" rx="112.3689" ry="18"/>
<text text-anchor="middle" x="1504" y="-343.4" font-family="Times,serif" font-size="14.00" fill="#000000">Олга_Дъщеря</text>
</g>
<!-- Димитър&#45;&gt;Олга_Дъщеря -->
<g id="edge1" class="edge">
<title>Димитър-&gt;Олга_Дъщеря</title>
<path fill="none" stroke="#000000" d="M1766.4208,-406.6447C1714.138,-394.8811 1636.6839,-377.4539 1579.4648,-364.5796"/>
<polygon fill="#000000" stroke="#000000" points="1579.9114,-361.0926 1569.387,-362.3121 1578.3747,-367.9219 1579.9114,-361.0926"/>
</g>
<!-- Петър_Син -->
<g id="node4" class="node">
<title>Петър_Син</title>
<ellipse fill="#ffffff" stroke="#ffffff" cx="1734" cy="-347.6" rx="99.6003" ry="18"/>
<text text-anchor="middle" x="1734" y="-343.4" font-family="Times,serif" font-size="14.00" fill="#000000">Петър_Син</text>
</g>
<!-- Димитър&#45;&gt;Петър_Син -->
<g id="edge3" class="edge">
<title>Димитър-&gt;Петър_Син</title>
<path fill="none" stroke="#000000" d="M1802.2135,-402.1708C1790.7766,-393.0213 1776.5848,-381.6679 1764.1126,-371.6901"/>
<polygon fill="#000000" stroke="#000000" points="1766.2063,-368.8828 1756.2111,-365.3689 1761.8334,-374.3489 1766.2063,-368.8828"/>
</g>
<!-- Енчо_Син -->
<g id="node5" class="node">
<title>Енчо_Син</title>
<ellipse fill="#ffffff" stroke="#ffffff" cx="1961" cy="-347.6" rx="109.4145" ry="18"/>
<text text-anchor="middle" x="1961" y="-343.4" font-family="Times,serif" font-size="14.00" fill="#000000">Енчо_Син</text>
</g>
<!-- Димитър&#45;&gt;Енчо_Син -->
<g id="edge5" class="edge">
<title>Димитър-&gt;Енчо_Син</title>
<path fill="none" stroke="#000000" d="M1855.7749,-402.9008C1874.5568,-393.03 1898.5685,-380.4107 1918.9108,-369.7199"/>
<polygon fill="#000000" stroke="#000000" points="1920.7434,-372.7107 1927.9671,-364.9603 1917.4869,-366.5143 1920.7434,-372.7107"/>
</g>
<!-- Олга_Съпруга -->
<g id="node6" class="node">
<title>Олга_Съпруга</title>
<ellipse fill="#ffffff" stroke="#ffffff" cx="780" cy="-262.8" rx="136.6714" ry="18"/>
<text text-anchor="middle" x="780" y="-258.6" font-family="Times,serif" font-size="14.00" fill="#000000">Олга_Съпруга</text>
</g>
<!-- Олга_Дъщеря&#45;&gt;Олга_Съпруга -->
<g id="edge7" class="edge">
<title>Олга_Дъщеря-&gt;Олга_Съпруга</title>
<path fill="none" stroke="#000000" d="M1413.038,-336.9459C1280.8169,-321.4592 1035.7177,-292.7515 892.3815,-275.9629"/>
<polygon fill="#000000" stroke="#000000" points="892.5794,-272.4622 882.2401,-274.7751 891.765,-279.4147 892.5794,-272.4622"/>
</g>
<!-- Йонка -->
<g id="node3" class="node">
<title>Йонка</title>
<ellipse fill="#ffffff" stroke="#ffffff" cx="1643" cy="-419.6" rx="80.5152" ry="18"/>
<text text-anchor="middle" x="1643" y="-415.4" font-family="Times,serif" font-size="14.00" fill="#000000">Йонка</text>
</g>
<!-- Йонка&#45;&gt;Олга_Дъщеря -->
<g id="edge2" class="edge">
<title>Йонка-&gt;Олга_Дъщеря</title>
<path fill="none" stroke="#000000" d="M1610.7612,-402.9008C1591.6193,-392.9855 1567.1233,-380.297 1546.4249,-369.5755"/>
<polygon fill="#000000" stroke="#000000" points="1548.0044,-366.452 1537.5151,-364.9603 1544.7848,-372.6677 1548.0044,-366.452"/>
</g>
<!-- Йонка&#45;&gt;Петър_Син -->
<g id="edge4" class="edge">
<title>Йонка-&gt;Петър_Син</title>
<path fill="none" stroke="#000000" d="M1665.0286,-402.1708C1676.5926,-393.0213 1690.942,-381.6679 1703.5528,-371.6901"/>
<polygon fill="#000000" stroke="#000000" points="1705.8716,-374.3185 1711.5421,-365.3689 1701.5282,-368.829 1705.8716,-374.3185"/>
</g>
<!-- Йонка&#45;&gt;Енчо_Син -->
<g id="edge6" class="edge">
<title>Йонка-&gt;Енчо_Син</title>
<path fill="none" stroke="#000000" d="M1699.852,-406.7278C1752.012,-394.918 1829.6056,-377.3497 1886.6638,-364.4308"/>
<polygon fill="#000000" stroke="#000000" points="1887.7291,-367.7783 1896.7093,-362.1564 1886.1832,-360.9511 1887.7291,-367.7783"/>
</g>
<!-- Петър_Съпруг -->
<g id="node21" class="node">
<title>Петър_Съпруг</title>
<ellipse fill="#ffffff" stroke="#ffffff" cx="1734" cy="-262.8" rx="110.0584" ry="18"/>
<text text-anchor="middle" x="1734" y="-258.6" font-family="Times,serif" font-size="14.00" fill="#000000">Петър_Съпруг</text>
</g>
<!-- Петър_Син&#45;&gt;Петър_Съпруг -->
<g id="edge23" class="edge">
<title>Петър_Син-&gt;Петър_Съпруг</title>
<path fill="none" stroke="#000000" d="M1734,-329.1997C1734,-318.0112 1734,-303.4983 1734,-290.8954"/>
<polygon fill="#000000" stroke="#000000" points="1737.5001,-290.8731 1734,-280.8731 1730.5001,-290.8731 1737.5001,-290.8731"/>
</g>
<!-- Енчо_Съпруг -->
<g id="node16" class="node">
<title>Енчо_Съпруг</title>
<ellipse fill="#ffffff" stroke="#ffffff" cx="2186" cy="-262.8" rx="119.8719" ry="18"/>
<text text-anchor="middle" x="2186" y="-258.6" font-family="Times,serif" font-size="14.00" fill="#000000">Енчо_Съпруг</text>
</g>
<!-- Енчо_Син&#45;&gt;Енчо_Съпруг -->
<g id="edge18" class="edge">
<title>Енчо_Син-&gt;Енчо_Съпруг</title>
<path fill="none" stroke="#000000" d="M2007.9933,-331.3234C2023.6261,-325.8112 2041.1009,-319.5439 2057,-313.6 2082.6612,-304.0065 2111.004,-292.9018 2134.5714,-283.5261"/>
<polygon fill="#000000" stroke="#000000" points="2136.0289,-286.713 2144.0211,-279.7578 2133.4359,-280.2109 2136.0289,-286.713"/>
</g>
<!-- Иванка_Дъщеря -->
<g id="node7" class="node">
<title>Иванка_Дъщеря</title>
<ellipse fill="#ffffff" stroke="#ffffff" cx="536" cy="-190.8" rx="143.0558" ry="18"/>
<text text-anchor="middle" x="536" y="-186.6" font-family="Times,serif" font-size="14.00" fill="#000000">Иванка_Дъщеря</text>
</g>
<!-- Олга_Съпруга&#45;&gt;Иванка_Дъщеря -->
<g id="edge8" class="edge">
<title>Олга_Съпруга-&gt;Иванка_Дъщеря</title>
<path fill="none" stroke="#000000" d="M724.0215,-246.2817C687.7286,-235.5724 640.2811,-221.5715 602.1304,-210.3139"/>
<polygon fill="#000000" stroke="#000000" points="602.7218,-206.8392 592.14,-207.3659 600.7406,-213.5531 602.7218,-206.8392"/>
</g>
<!-- Таня_Дъщеря -->
<g id="node8" class="node">
<title>Таня_Дъщеря</title>
<ellipse fill="#ffffff" stroke="#ffffff" cx="807" cy="-190.8" rx="110.0404" ry="18"/>
<text text-anchor="middle" x="807" y="-186.6" font-family="Times,serif" font-size="14.00" fill="#000000">Таня_Дъщеря</text>
</g>
<!-- Олга_Съпруга&#45;&gt;Таня_Дъщеря -->
<g id="edge9" class="edge">
<title>Олга_Съпруга-&gt;Таня_Дъщеря</title>
<path fill="none" stroke="#000000" d="M786.8132,-244.6314C789.7644,-236.7617 793.2858,-227.3712 796.555,-218.6533"/>
<polygon fill="#000000" stroke="#000000" points="799.8609,-219.8055 800.095,-209.2133 793.3066,-217.3476 799.8609,-219.8055"/>
</g>
<!-- Иванка_Съпруга -->
<g id="node10" class="node">
<title>Иванка_Съпруга</title>
<ellipse fill="#ffffff" stroke="#ffffff" cx="202" cy="-106" rx="167.858" ry="18"/>
<text text-anchor="middle" x="202" y="-101.8" font-family="Times,serif" font-size="14.00" fill="#000000">Иванка_Съпруга</text>
</g>
<!-- Иванка_Дъщеря&#45;&gt;Иванка_Съпруга -->
<g id="edge12" class="edge">
<title>Иванка_Дъщеря-&gt;Иванка_Съпруга</title>
<path fill="none" stroke="#000000" d="M461.7737,-175.3205C436.3981,-169.7878 407.8906,-163.3057 382,-156.8 344.309,-147.3291 302.5169,-135.6102 268.6969,-125.8154"/>
<polygon fill="#000000" stroke="#000000" points="269.5057,-122.4057 258.9261,-122.9751 267.5516,-129.1275 269.5057,-122.4057"/>
</g>
<!-- Таня_Съпруга -->
<g id="node13" class="node">
<title>Таня_Съпруга</title>
<ellipse fill="#ffffff" stroke="#ffffff" cx="807" cy="-106" rx="134.3428" ry="18"/>
<text text-anchor="middle" x="807" y="-101.8" font-family="Times,serif" font-size="14.00" fill="#000000">Таня_Съпруга</text>
</g>
<!-- Таня_Дъщеря&#45;&gt;Таня_Съпруга -->
<g id="edge15" class="edge">
<title>Таня_Дъщеря-&gt;Таня_Съпруга</title>
<path fill="none" stroke="#000000" d="M807,-172.3997C807,-161.2112 807,-146.6983 807,-134.0954"/>
<polygon fill="#000000" stroke="#000000" points="810.5001,-134.0731 807,-124.0731 803.5001,-134.0731 810.5001,-134.0731"/>
</g>
<!-- Христо -->
<g id="node9" class="node">
<title>Христо</title>
<ellipse fill="#ffffff" stroke="#ffffff" cx="548" cy="-262.8" rx="64.9006" ry="18"/>
<text text-anchor="middle" x="548" y="-258.6" font-family="Times,serif" font-size="14.00" fill="#000000">Христо</text>
</g>
<!-- Христо&#45;&gt;Иванка_Дъщеря -->
<g id="edge10" class="edge">
<title>Христо-&gt;Иванка_Дъщеря</title>
<path fill="none" stroke="#000000" d="M544.9719,-244.6314C543.6885,-236.931 542.1624,-227.7743 540.7361,-219.2166"/>
<polygon fill="#000000" stroke="#000000" points="544.1653,-218.5018 539.0689,-209.2133 537.2606,-219.6526 544.1653,-218.5018"/>
</g>
<!-- Христо&#45;&gt;Таня_Дъщеря -->
<g id="edge11" class="edge">
<title>Христо-&gt;Таня_Дъщеря</title>
<path fill="none" stroke="#000000" d="M594.0056,-250.0108C634.9045,-238.6412 695.1726,-221.8872 741.1719,-209.0997"/>
<polygon fill="#000000" stroke="#000000" points="742.3566,-212.4032 751.0538,-206.3526 740.4817,-205.6589 742.3566,-212.4032"/>
</g>
<!-- Делян -->
<g id="node11" class="node">
<title>Делян</title>
<ellipse fill="#ffffff" stroke="#ffffff" cx="90" cy="-34" rx="73.6138" ry="18"/>
<text text-anchor="middle" x="90" y="-29.8" font-family="Times,serif" font-size="14.00" fill="#000000">Делян</text>
</g>
<!-- Иванка_Съпруга&#45;&gt;Делян -->
<g id="edge13" class="edge">
<title>Иванка_Съпруга-&gt;Делян</title>
<path fill="none" stroke="#000000" d="M174.3146,-88.2022C159.3387,-78.5749 140.6966,-66.5906 124.7525,-56.3409"/>
<polygon fill="#000000" stroke="#000000" points="126.5171,-53.3145 116.2126,-50.851 122.7318,-59.2027 126.5171,-53.3145"/>
</g>
<!-- Велина -->
<g id="node12" class="node">
<title>Велина</title>
<ellipse fill="#ffffff" stroke="#ffffff" cx="276" cy="-34" rx="93.8423" ry="18"/>
<text text-anchor="middle" x="276" y="-29.8" font-family="Times,serif" font-size="14.00" fill="#000000">Велина</text>
</g>
<!-- Иванка_Съпруга&#45;&gt;Велина -->
<g id="edge14" class="edge">
<title>Иванка_Съпруга-&gt;Велина</title>
<path fill="none" stroke="#000000" d="M220.6733,-87.8314C229.749,-79.001 240.7929,-68.2556 250.6196,-58.6944"/>
<polygon fill="#000000" stroke="#000000" points="253.1177,-61.1472 257.8443,-51.665 248.2362,-56.1301 253.1177,-61.1472"/>
</g>
<!-- Орлин -->
<g id="node14" class="node">
<title>Орлин</title>
<ellipse fill="#ffffff" stroke="#ffffff" cx="665" cy="-34" rx="74.7146" ry="18"/>
<text text-anchor="middle" x="665" y="-29.8" font-family="Times,serif" font-size="14.00" fill="#000000">Орлин</text>
</g>
<!-- Таня_Съпруга&#45;&gt;Орлин -->
<g id="edge16" class="edge">
<title>Таня_Съпруга-&gt;Орлин</title>
<path fill="none" stroke="#000000" d="M772.6258,-88.5708C752.6058,-78.4198 727.2357,-65.5561 706.1562,-54.8679"/>
<polygon fill="#000000" stroke="#000000" points="707.613,-51.6824 697.1111,-50.2817 704.4473,-57.9257 707.613,-51.6824"/>
</g>
<!-- Емил_Съпруг -->
<g id="node15" class="node">
<title>Емил_Съпруг</title>
<ellipse fill="#ffffff" stroke="#ffffff" cx="524" cy="-106" rx="130.287" ry="18"/>
<text text-anchor="middle" x="524" y="-101.8" font-family="Times,serif" font-size="14.00" fill="#000000">Емил_Съпруг</text>
</g>
<!-- Емил_Съпруг&#45;&gt;Орлин -->
<g id="edge17" class="edge">
<title>Емил_Съпруг-&gt;Орлин</title>
<path fill="none" stroke="#000000" d="M558.1322,-88.5708C578.0112,-78.4198 603.2026,-65.5561 624.1337,-54.8679"/>
<polygon fill="#000000" stroke="#000000" points="625.8007,-57.9466 633.115,-50.2817 622.6172,-51.7124 625.8007,-57.9466"/>
</g>
<!-- Людмил_Син -->
<g id="node18" class="node">
<title>Людмил_Син</title>
<ellipse fill="#ffffff" stroke="#ffffff" cx="2045" cy="-190.8" rx="136.6285" ry="18"/>
<text text-anchor="middle" x="2045" y="-186.6" font-family="Times,serif" font-size="14.00" fill="#000000">Людмил_Син</text>
</g>
<!-- Енчо_Съпруг&#45;&gt;Людмил_Син -->
<g id="edge21" class="edge">
<title>Енчо_Съпруг-&gt;Людмил_Син</title>
<path fill="none" stroke="#000000" d="M2151.8678,-245.3708C2132.7848,-235.6263 2108.8062,-223.3819 2088.4004,-212.9619"/>
<polygon fill="#000000" stroke="#000000" points="2089.8044,-209.7489 2079.3065,-208.3182 2086.6209,-215.9832 2089.8044,-209.7489"/>
</g>
<!-- Елица_Дъщеря -->
<g id="node20" class="node">
<title>Елица_Дъщеря</title>
<ellipse fill="#ffffff" stroke="#ffffff" cx="2336" cy="-190.8" rx="115.7986" ry="18"/>
<text text-anchor="middle" x="2336" y="-186.6" font-family="Times,serif" font-size="14.00" fill="#000000">Елица_Дъщеря</text>
</g>
<!-- Енчо_Съпруг&#45;&gt;Елица_Дъщеря -->
<g id="edge22" class="edge">
<title>Енчо_Съпруг-&gt;Елица_Дъщеря</title>
<path fill="none" stroke="#000000" d="M2221.9287,-245.5542C2242.6326,-235.6164 2268.8476,-223.0332 2290.9247,-212.4362"/>
<polygon fill="#000000" stroke="#000000" points="2292.6041,-215.5124 2300.1048,-208.0297 2289.575,-209.2017 2292.6041,-215.5124"/>
</g>
<!-- Елена -->
<g id="node17" class="node">
<title>Елена</title>
<ellipse fill="#ffffff" stroke="#ffffff" cx="1967" cy="-262.8" rx="81.0987" ry="18"/>
<text text-anchor="middle" x="1967" y="-258.6" font-family="Times,serif" font-size="14.00" fill="#000000">Елена</text>
</g>
<!-- Елена&#45;&gt;Людмил_Син -->
<g id="edge19" class="edge">
<title>Елена-&gt;Людмил_Син</title>
<path fill="none" stroke="#000000" d="M1986.2809,-245.0022C1995.9373,-236.0887 2007.7824,-225.1548 2018.2984,-215.4476"/>
<polygon fill="#000000" stroke="#000000" points="2020.6965,-217.9972 2025.6706,-208.6425 2015.9485,-212.8536 2020.6965,-217.9972"/>
</g>
<!-- Людмил_Съпруг -->
<g id="node29" class="node">
<title>Людмил_Съпруг</title>
<ellipse fill="#ffffff" stroke="#ffffff" cx="2045" cy="-106" rx="147.0865" ry="18"/>
<text text-anchor="middle" x="2045" y="-101.8" font-family="Times,serif" font-size="14.00" fill="#000000">Людмил_Съпруг</text>
</g>
<!-- Людмил_Син&#45;&gt;Людмил_Съпруг -->
<g id="edge33" class="edge">
<title>Людмил_Син-&gt;Людмил_Съпруг</title>
<path fill="none" stroke="#000000" d="M2045,-172.3997C2045,-161.2112 2045,-146.6983 2045,-134.0954"/>
<polygon fill="#000000" stroke="#000000" points="2048.5001,-134.0731 2045,-124.0731 2041.5001,-134.0731 2048.5001,-134.0731"/>
</g>
<!-- Елка -->
<g id="node19" class="node">
<title>Елка</title>
<ellipse fill="#ffffff" stroke="#ffffff" cx="2388" cy="-262.8" rx="63.7161" ry="18"/>
<text text-anchor="middle" x="2388" y="-258.6" font-family="Times,serif" font-size="14.00" fill="#000000">Елка</text>
</g>
<!-- Елка&#45;&gt;Елица_Дъщеря -->
<g id="edge20" class="edge">
<title>Елка-&gt;Елица_Дъщеря</title>
<path fill="none" stroke="#000000" d="M2375.1461,-245.0022C2369.067,-236.5851 2361.6869,-226.3665 2354.9803,-217.0805"/>
<polygon fill="#000000" stroke="#000000" points="2357.7596,-214.9507 2349.0673,-208.8931 2352.0848,-219.0492 2357.7596,-214.9507"/>
</g>
<!-- Елица_Съпруга -->
<g id="node33" class="node">
<title>Елица_Съпруга</title>
<ellipse fill="#ffffff" stroke="#ffffff" cx="2824" cy="-106" rx="140.1008" ry="18"/>
<text text-anchor="middle" x="2824" y="-101.8" font-family="Times,serif" font-size="14.00" fill="#000000">Елица_Съпруга</text>
</g>
<!-- Елица_Дъщеря&#45;&gt;Елица_Съпруга -->
<g id="edge38" class="edge">
<title>Елица_Дъщеря-&gt;Елица_Съпруга</title>
<path fill="none" stroke="#000000" d="M2447.6935,-186.0298C2514.2823,-181.597 2600.1532,-173.0875 2675,-156.8 2708.0857,-149.6002 2744.0452,-137.4711 2772.3477,-126.8702"/>
<polygon fill="#000000" stroke="#000000" points="2773.9169,-130.0182 2782.022,-123.1948 2771.4309,-123.4745 2773.9169,-130.0182"/>
</g>
<!-- Жана_Дъщеря -->
<g id="node23" class="node">
<title>Жана_Дъщеря</title>
<ellipse fill="#ffffff" stroke="#ffffff" cx="1438" cy="-190.8" rx="114.6975" ry="18"/>
<text text-anchor="middle" x="1438" y="-186.6" font-family="Times,serif" font-size="14.00" fill="#000000">Жана_Дъщеря</text>
</g>
<!-- Петър_Съпруг&#45;&gt;Жана_Дъщеря -->
<g id="edge25" class="edge">
<title>Петър_Съпруг-&gt;Жана_Дъщеря</title>
<path fill="none" stroke="#000000" d="M1672.309,-247.7941C1625.1519,-236.3234 1560.0248,-220.4817 1510.4,-208.4108"/>
<polygon fill="#000000" stroke="#000000" points="1510.9192,-204.9351 1500.3752,-205.9724 1509.2647,-211.7368 1510.9192,-204.9351"/>
</g>
<!-- Йонка_Дъшеря -->
<g id="node24" class="node">
<title>Йонка_Дъшеря</title>
<ellipse fill="#ffffff" stroke="#ffffff" cx="1710" cy="-190.8" rx="128.585" ry="18"/>
<text text-anchor="middle" x="1710" y="-186.6" font-family="Times,serif" font-size="14.00" fill="#000000">Йонка_Дъшеря</text>
</g>
<!-- Петър_Съпруг&#45;&gt;Йонка_Дъшеря -->
<g id="edge27" class="edge">
<title>Петър_Съпруг-&gt;Йонка_Дъшеря</title>
<path fill="none" stroke="#000000" d="M1727.9438,-244.6314C1725.3488,-236.8463 1722.2576,-227.5729 1719.3782,-218.9347"/>
<polygon fill="#000000" stroke="#000000" points="1722.6205,-217.5933 1716.1378,-209.2133 1715.9797,-219.8069 1722.6205,-217.5933"/>
</g>
<!-- Маргарита_Съпруга -->
<g id="node22" class="node">
<title>Маргарита_Съпруга</title>
<ellipse fill="#ffffff" stroke="#ffffff" cx="1432" cy="-262.8" rx="173.6995" ry="18"/>
<text text-anchor="middle" x="1432" y="-258.6" font-family="Times,serif" font-size="14.00" fill="#000000">Маргарита_Съпруга</text>
</g>
<!-- Маргарита_Съпруга&#45;&gt;Жана_Дъщеря -->
<g id="edge24" class="edge">
<title>Маргарита_Съпруга-&gt;Жана_Дъщеря</title>
<path fill="none" stroke="#000000" d="M1433.5141,-244.6314C1434.1558,-236.931 1434.9188,-227.7743 1435.6319,-219.2166"/>
<polygon fill="#000000" stroke="#000000" points="1439.1229,-219.4694 1436.4656,-209.2133 1432.1471,-218.888 1439.1229,-219.4694"/>
</g>
<!-- Маргарита_Съпруга&#45;&gt;Йонка_Дъшеря -->
<g id="edge26" class="edge">
<title>Маргарита_Съпруга-&gt;Йонка_Дъшеря</title>
<path fill="none" stroke="#000000" d="M1496.8278,-246.0101C1539.3389,-235 1594.9401,-220.5997 1638.6983,-209.2666"/>
<polygon fill="#000000" stroke="#000000" points="1639.6096,-212.6462 1648.4126,-206.7507 1637.8545,-205.8698 1639.6096,-212.6462"/>
</g>
<!-- Жана_Съпруга -->
<g id="node25" class="node">
<title>Жана_Съпруга</title>
<ellipse fill="#ffffff" stroke="#ffffff" cx="1438" cy="-106" rx="139.5001" ry="18"/>
<text text-anchor="middle" x="1438" y="-101.8" font-family="Times,serif" font-size="14.00" fill="#000000">Жана_Съпруга</text>
</g>
<!-- Жана_Дъщеря&#45;&gt;Жана_Съпруга -->
<g id="edge28" class="edge">
<title>Жана_Дъщеря-&gt;Жана_Съпруга</title>
<path fill="none" stroke="#000000" d="M1438,-172.3997C1438,-161.2112 1438,-146.6983 1438,-134.0954"/>
<polygon fill="#000000" stroke="#000000" points="1441.5001,-134.0731 1438,-124.0731 1434.5001,-134.0731 1441.5001,-134.0731"/>
</g>
<!-- Йоанна_Дъщеря -->
<g id="node26" class="node">
<title>Йоанна_Дъщеря</title>
<ellipse fill="#ffffff" stroke="#ffffff" cx="1111" cy="-34" rx="146.4678" ry="18"/>
<text text-anchor="middle" x="1111" y="-29.8" font-family="Times,serif" font-size="14.00" fill="#000000">Йоанна_Дъщеря</text>
</g>
<!-- Жана_Съпруга&#45;&gt;Йоанна_Дъщеря -->
<g id="edge29" class="edge">
<title>Жана_Съпруга-&gt;Йоанна_Дъщеря</title>
<path fill="none" stroke="#000000" d="M1367.4485,-90.4657C1316.0139,-79.1407 1246.2026,-63.7694 1192.4047,-51.924"/>
<polygon fill="#000000" stroke="#000000" points="1193.0726,-48.4873 1182.5539,-49.755 1191.5673,-55.3235 1193.0726,-48.4873"/>
</g>
<!-- Александър_Син -->
<g id="node28" class="node">
<title>Александър_Син</title>
<ellipse fill="#ffffff" stroke="#ffffff" cx="1447" cy="-34" rx="171.3709" ry="18"/>
<text text-anchor="middle" x="1447" y="-29.8" font-family="Times,serif" font-size="14.00" fill="#000000">Александър_Син</text>
</g>
<!-- Жана_Съпруга&#45;&gt;Александър_Син -->
<g id="edge31" class="edge">
<title>Жана_Съпруга-&gt;Александър_Син</title>
<path fill="none" stroke="#000000" d="M1440.2711,-87.8314C1441.2336,-80.131 1442.3782,-70.9743 1443.4479,-62.4166"/>
<polygon fill="#000000" stroke="#000000" points="1446.9309,-62.7702 1444.6983,-52.4133 1439.9849,-61.9019 1446.9309,-62.7702"/>
</g>
<!-- Юлиан_Съпруг -->
<g id="node27" class="node">
<title>Юлиан_Съпруг</title>
<ellipse fill="#ffffff" stroke="#ffffff" cx="1119" cy="-106" rx="145.3374" ry="18"/>
<text text-anchor="middle" x="1119" y="-101.8" font-family="Times,serif" font-size="14.00" fill="#000000">Юлиан_Съпруг</text>
</g>
<!-- Юлиан_Съпруг&#45;&gt;Йоанна_Дъщеря -->
<g id="edge30" class="edge">
<title>Юлиан_Съпруг-&gt;Йоанна_Дъщеря</title>
<path fill="none" stroke="#000000" d="M1116.9813,-87.8314C1116.1257,-80.131 1115.1083,-70.9743 1114.1574,-62.4166"/>
<polygon fill="#000000" stroke="#000000" points="1117.6289,-61.9656 1113.0459,-52.4133 1110.6717,-62.7386 1117.6289,-61.9656"/>
</g>
<!-- Юлиан_Съпруг&#45;&gt;Александър_Син -->
<g id="edge32" class="edge">
<title>Юлиан_Съпруг-&gt;Александър_Син</title>
<path fill="none" stroke="#000000" d="M1190.5757,-90.2883C1241.4158,-79.1282 1309.8503,-64.106 1363.2342,-52.3876"/>
<polygon fill="#000000" stroke="#000000" points="1364.0024,-55.8024 1373.0194,-50.2396 1362.5015,-48.9652 1364.0024,-55.8024"/>
</g>
<!-- Зорница_Дъщеря -->
<g id="node31" class="node">
<title>Зорница_Дъщеря</title>
<ellipse fill="#ffffff" stroke="#ffffff" cx="1779" cy="-34" rx="137.2548" ry="18"/>
<text text-anchor="middle" x="1779" y="-29.8" font-family="Times,serif" font-size="14.00" fill="#000000">Зорница_Дъщеря</text>
</g>
<!-- Людмил_Съпруг&#45;&gt;Зорница_Дъщеря -->
<g id="edge35" class="edge">
<title>Людмил_Съпруг-&gt;Зорница_Дъщеря</title>
<path fill="none" stroke="#000000" d="M1984.3076,-89.572C1943.9926,-78.6597 1890.9427,-64.3003 1848.8682,-52.9117"/>
<polygon fill="#000000" stroke="#000000" points="1849.5399,-49.4676 1838.9728,-50.2332 1847.711,-56.2245 1849.5399,-49.4676"/>
</g>
<!-- Антон_Син -->
<g id="node32" class="node">
<title>Антон_Син</title>
<ellipse fill="#ffffff" stroke="#ffffff" cx="2063" cy="-34" rx="128.5419" ry="18"/>
<text text-anchor="middle" x="2063" y="-29.8" font-family="Times,serif" font-size="14.00" fill="#000000">Антон_Син</text>
</g>
<!-- Людмил_Съпруг&#45;&gt;Антон_Син -->
<g id="edge37" class="edge">
<title>Людмил_Съпруг-&gt;Антон_Син</title>
<path fill="none" stroke="#000000" d="M2049.5422,-87.8314C2051.4884,-80.0463 2053.8068,-70.7729 2055.9663,-62.1347"/>
<polygon fill="#000000" stroke="#000000" points="2059.3668,-62.9636 2058.3967,-52.4133 2052.5758,-61.2658 2059.3668,-62.9636"/>
</g>
<!-- НН_Съпруга -->
<g id="node30" class="node">
<title>НН_Съпруга</title>
<ellipse fill="#ffffff" stroke="#ffffff" cx="1772" cy="-106" rx="107.7297" ry="18"/>
<text text-anchor="middle" x="1772" y="-101.8" font-family="Times,serif" font-size="14.00" fill="#000000">НН_Съпруга</text>
</g>
<!-- НН_Съпруга&#45;&gt;Зорница_Дъщеря -->
<g id="edge34" class="edge">
<title>НН_Съпруга-&gt;Зорница_Дъщеря</title>
<path fill="none" stroke="#000000" d="M1773.7664,-87.8314C1774.515,-80.131 1775.4053,-70.9743 1776.2373,-62.4166"/>
<polygon fill="#000000" stroke="#000000" points="1779.7256,-62.7051 1777.2098,-52.4133 1772.7585,-62.0276 1779.7256,-62.7051"/>
</g>
<!-- НН_Съпруга&#45;&gt;Антон_Син -->
<g id="edge36" class="edge">
<title>НН_Съпруга-&gt;Антон_Син</title>
<path fill="none" stroke="#000000" d="M1832.6489,-90.9941C1878.3862,-79.6777 1941.3179,-64.1069 1989.8469,-52.0997"/>
<polygon fill="#000000" stroke="#000000" points="1990.7948,-55.4708 1999.6615,-49.6714 1989.1135,-48.6757 1990.7948,-55.4708"/>
</g>
<!-- 1 -->
<g id="node34" class="node">
<title>1</title>
<ellipse fill="#ffffff" stroke="#ffffff" cx="2466" cy="-34" rx="27" ry="18"/>
<text text-anchor="middle" x="2466" y="-29.8" font-family="Times,serif" font-size="14.00" fill="#000000">1</text>
</g>
<!-- Елица_Съпруга&#45;&gt;1 -->
<g id="edge39" class="edge">
<title>Елица_Съпруга-&gt;1</title>
<path fill="none" stroke="#000000" d="M2748.5149,-90.8186C2672.8107,-75.5932 2559.4695,-52.7983 2502.0745,-41.2552"/>
<polygon fill="#000000" stroke="#000000" points="2502.5241,-37.7756 2492.0303,-39.2352 2501.1439,-44.6382 2502.5241,-37.7756"/>
</g>
<!-- 2 -->
<g id="node37" class="node">
<title>2</title>
<ellipse fill="#ffffff" stroke="#ffffff" cx="2728" cy="-34" rx="27" ry="18"/>
<text text-anchor="middle" x="2728" y="-29.8" font-family="Times,serif" font-size="14.00" fill="#000000">2</text>
</g>
<!-- Елица_Съпруга&#45;&gt;2 -->
<g id="edge41" class="edge">
<title>Елица_Съпруга-&gt;2</title>
<path fill="none" stroke="#000000" d="M2800.2697,-88.2022C2786.2524,-77.6893 2768.488,-64.366 2754.0795,-53.5596"/>
<polygon fill="#000000" stroke="#000000" points="2756.1375,-50.7282 2746.0375,-47.5281 2751.9375,-56.3282 2756.1375,-50.7282"/>
</g>
<!-- _Син -->
<g id="node35" class="node">
<title>_Син</title>
<ellipse fill="#ffffff" stroke="#ffffff" cx="2605" cy="-106" rx="60.8448" ry="18"/>
<text text-anchor="middle" x="2605" y="-101.8" font-family="Times,serif" font-size="14.00" fill="#000000">_Син</text>
</g>
<!-- Красимир_Съпруг -->
<g id="node36" class="node">
<title>Красимир_Съпруг</title>
<ellipse fill="#ffffff" stroke="#ffffff" cx="2371" cy="-106" rx="155.1729" ry="18"/>
<text text-anchor="middle" x="2371" y="-101.8" font-family="Times,serif" font-size="14.00" fill="#000000">Красимир_Съпруг</text>
</g>
<!-- Красимир_Съпруг&#45;&gt;1 -->
<g id="edge40" class="edge">
<title>Красимир_Съпруг-&gt;1</title>
<path fill="none" stroke="#000000" d="M2394.4832,-88.2022C2408.2247,-77.7876 2425.6055,-64.6148 2439.7915,-53.8633"/>
<polygon fill="#000000" stroke="#000000" points="2442.2948,-56.3577 2448.1504,-47.5281 2438.0666,-50.7789 2442.2948,-56.3577"/>
</g>
<!-- Красимир_Съпруг&#45;&gt;2 -->
<g id="edge42" class="edge">
<title>Красимир_Съпруг-&gt;2</title>
<path fill="none" stroke="#000000" d="M2448.4637,-90.3771C2523.9484,-75.1533 2635.3768,-52.6803 2692.0526,-41.2499"/>
<polygon fill="#000000" stroke="#000000" points="2692.8664,-44.6563 2701.977,-39.2483 2691.4824,-37.7945 2692.8664,-44.6563"/>
</g>
</g>
</svg>