<?xml version="1.0" encoding="UTF-8" standalone="no"?>
<!DOCTYPE svg PUBLIC "-//W3C//DTD SVG 1.1//EN" "http://www.w3.org/Graphics/SVG/1.1/DTD/svg11.dtd">
<!-- Generated by graphviz version 2.40.1 (20161225.0304)
 -->
<!-- Title: G Pages: 1 -->
<svg width="4343pt" height="643pt" viewBox="0.00 0.00 4343.00 643.20" xmlns="http://www.w3.org/2000/svg" xmlns:xlink="http://www.w3.org/1999/xlink">
<g id="graph0" class="graph" transform="scale(1 1) rotate(0) translate(4 639.2)">
<title>G</title>
<polygon fill="#ffffff" stroke="transparent" points="-4,4 -4,-639.2 4339,-639.2 4339,4 -4,4"/>
<g id="clust1" class="cluster">
<title>cluster_1</title>
<polygon fill="#d3d3d3" stroke="#d3d3d3" points="2747,-321.6 2747,-470.4 3441,-470.4 3441,-321.6 2747,-321.6"/>
<text text-anchor="middle" x="3094" y="-453.8" font-family="Times,serif" font-size="14.00" fill="#000000">Максимови</text>
</g>
<g id="clust2" class="cluster">
<title>cluster_2</title>
<polygon fill="#d3d3d3" stroke="#d3d3d3" points="1739,-164.8 1739,-313.6 2279,-313.6 2279,-164.8 1739,-164.8"/>
<text text-anchor="middle" x="2009" y="-297" font-family="Times,serif" font-size="14.00" fill="#000000">Цоневи</text>
</g>
<g id="clust3" class="cluster">
<title>cluster_3</title>
<polygon fill="#d3d3d3" stroke="#d3d3d3" points="1651,-8 1651,-156.8 2304,-156.8 2304,-8 1651,-8"/>
<text text-anchor="middle" x="1977.5" y="-140.2" font-family="Times,serif" font-size="14.00" fill="#000000">Спасови</text>
</g>
<g id="clust4" class="cluster">
<title>cluster_4</title>
<polygon fill="#d3d3d3" stroke="#d3d3d3" points="1080,-8 1080,-156.8 1643,-156.8 1643,-8 1080,-8"/>
<text text-anchor="middle" x="1361.5" y="-140.2" font-family="Times,serif" font-size="14.00" fill="#000000">Димитрови</text>
</g>
<g id="clust5" class="cluster">
<title>cluster_5</title>
<polygon fill="#d3d3d3" stroke="#d3d3d3" points="3233,-164.8 3233,-313.6 3815,-313.6 3815,-164.8 3233,-164.8"/>
<text text-anchor="middle" x="3524" y="-297" font-family="Times,serif" font-size="14.00" fill="#000000">Максимови</text>
</g>
<g id="clust6" class="cluster">
<title>cluster_6</title>
<polygon fill="#d3d3d3" stroke="#d3d3d3" points="2593,-164.8 2593,-313.6 3215,-313.6 3215,-164.8 2593,-164.8"/>
<text text-anchor="middle" x="2904" y="-297" font-family="Times,serif" font-size="14.00" fill="#000000">Максимови</text>
</g>
<g id="clust7" class="cluster">
<title>cluster_7</title>
<polygon fill="#d3d3d3" stroke="#d3d3d3" points="2312,-8 2312,-156.8 2981,-156.8 2981,-8 2312,-8"/>
<text text-anchor="middle" x="2646.5" y="-140.2" font-family="Times,serif" font-size="14.00" fill="#000000">Максимови</text>
</g>
<g id="clust8" class="cluster">
<title>cluster_8</title>
<polygon fill="#d3d3d3" stroke="#d3d3d3" points="2989,-8 2989,-156.8 3555,-156.8 3555,-8 2989,-8"/>
<text text-anchor="middle" x="3272" y="-140.2" font-family="Times,serif" font-size="14.00" fill="#000000">Максимови</text>
</g>
<g id="clust9" class="cluster">
<title>cluster_9</title>
<polygon fill="#d3d3d3" stroke="#d3d3d3" points="3563,-8 3563,-156.8 4327,-156.8 4327,-8 3563,-8"/>
<text text-anchor="middle" x="3945" y="-140.2" font-family="Times,serif" font-size="14.00" fill="#000000">Максимови</text>
</g>
<g id="clust10" class="cluster">
<title>cluster_10</title>
<polygon fill="#d3d3d3" stroke="#d3d3d3" points="59,-321.6 59,-470.4 663,-470.4 663,-321.6 59,-321.6"/>
<text text-anchor="middle" x="361" y="-453.8" font-family="Times,serif" font-size="14.00" fill="#000000">Жендови</text>
</g>
<g id="clust11" class="cluster">
<title>cluster_11</title>
<polygon fill="#d3d3d3" stroke="#d3d3d3" points="8,-164.8 8,-313.6 700,-313.6 700,-164.8 8,-164.8"/>
<text text-anchor="middle" x="354" y="-297" font-family="Times,serif" font-size="14.00" fill="#000000">Жендови</text>
</g>
<g id="clust12" class="cluster">
<title>cluster_12</title>
<polygon fill="#d3d3d3" stroke="#d3d3d3" points="708,-164.8 708,-313.6 1349,-313.6 1349,-164.8 708,-164.8"/>
<text text-anchor="middle" x="1028.5" y="-297" font-family="Times,serif" font-size="14.00" fill="#000000">Димитрови</text>
</g>
<g id="clust13" class="cluster">
<title>cluster_13</title>
<polygon fill="#d3d3d3" stroke="#d3d3d3" points="712,-321.6 712,-470.4 1682,-470.4 1682,-321.6 712,-321.6"/>
<text text-anchor="middle" x="1197" y="-453.8" font-family="Times,serif" font-size="14.00" fill="#000000">Михайлови</text>
</g>
<g id="clust14" class="cluster">
<title>cluster_14</title>
<polygon fill="#d3d3d3" stroke="#d3d3d3" points="3059,-478.4 3059,-627.2 3315,-627.2 3315,-478.4 3059,-478.4"/>
<text text-anchor="middle" x="3187" y="-610.6" font-family="Times,serif" font-size="14.00" fill="#000000">Тютюнкови</text>
</g>
<!-- Димитър -->
<g id="node1" class="node">
<title>Димитър</title>
<ellipse fill="#ffffff" stroke="#ffffff" cx="3187" cy="-419.6" rx="82.8012" ry="18"/>
<text text-anchor="middle" x="3187" y="-415.4" font-family="Times,serif" font-size="14.00" fill="#000000">Димитър</text>
</g>
<!-- Олга_Дъщеря -->
<g id="node2" class="node">
<title>Олга_Дъщеря</title>
<ellipse fill="#ffffff" stroke="#ffffff" cx="2867" cy="-347.6" rx="112.3689" ry="18"/>
<text text-anchor="middle" x="2867" y="-343.4" font-family="Times,serif" font-size="14.00" fill="#000000">Олга_Дъщеря</text>
</g>
<!-- Димитър&#45;&gt;Олга_Дъщеря -->
<g id="edge1" class="edge">
<title>Димитър-&gt;Олга_Дъщеря</title>
<path fill="none" stroke="#000000" d="M3129.4208,-406.6447C3077.138,-394.8811 2999.6839,-377.4539 2942.4648,-364.5796"/>
<polygon fill="#000000" stroke="#000000" points="2942.9114,-361.0926 2932.387,-362.3121 2941.3747,-367.9219 2942.9114,-361.0926"/>
</g>
<!-- Петър_Син -->
<g id="node4" class="node">
<title>Петър_Син</title>
<ellipse fill="#ffffff" stroke="#ffffff" cx="3097" cy="-347.6" rx="99.6003" ry="18"/>
<text text-anchor="middle" x="3097" y="-343.4" font-family="Times,serif" font-size="14.00" fill="#000000">Петър_Син</text>
</g>
<!-- Димитър&#45;&gt;Петър_Син -->
<g id="edge3" class="edge">
<title>Димитър-&gt;Петър_Син</title>
<path fill="none" stroke="#000000" d="M3165.2135,-402.1708C3153.7766,-393.0213 3139.5848,-381.6679 3127.1126,-371.6901"/>
<polygon fill="#000000" stroke="#000000" points="3129.2063,-368.8828 3119.2111,-365.3689 3124.8334,-374.3489 3129.2063,-368.8828"/>
</g>
<!-- Енчо_Син -->
<g id="node5" class="node">
<title>Енчо_Син</title>
<ellipse fill="#ffffff" stroke="#ffffff" cx="3324" cy="-347.6" rx="109.4145" ry="18"/>
<text text-anchor="middle" x="3324" y="-343.4" font-family="Times,serif" font-size="14.00" fill="#000000">Енчо_Син</text>
</g>
<!-- Димитър&#45;&gt;Енчо_Син -->
<g id="edge5" class="edge">
<title>Димитър-&gt;Енчо_Син</title>
<path fill="none" stroke="#000000" d="M3218.7749,-402.9008C3237.5568,-393.03 3261.5685,-380.4107 3281.9108,-369.7199"/>
<polygon fill="#000000" stroke="#000000" points="3283.7434,-372.7107 3290.9671,-364.9603 3280.4869,-366.5143 3283.7434,-372.7107"/>
</g>
<!-- Олга_Съпруга -->
<g id="node6" class="node">
<title>Олга_Съпруга</title>
<ellipse fill="#ffffff" stroke="#ffffff" cx="2128" cy="-262.8" rx="136.6714" ry="18"/>
<text text-anchor="middle" x="2128" y="-258.6" font-family="Times,serif" font-size="14.00" fill="#000000">Олга_Съпруга</text>
</g>
<!-- Олга_Дъщеря&#45;&gt;Олга_Съпруга -->
<g id="edge7" class="edge">
<title>Олга_Дъщеря-&gt;Олга_Съпруга</title>
<path fill="none" stroke="#000000" d="M2775.2714,-337.0742C2640.2257,-321.5777 2388.1039,-292.6468 2241.5589,-275.8308"/>
<polygon fill="#000000" stroke="#000000" points="2241.527,-272.3043 2231.1932,-274.6414 2240.7289,-279.2587 2241.527,-272.3043"/>
</g>
<!-- Йонка -->
<g id="node3" class="node">
<title>Йонка</title>
<ellipse fill="#ffffff" stroke="#ffffff" cx="3006" cy="-419.6" rx="80.5152" ry="18"/>
<text text-anchor="middle" x="3006" y="-415.4" font-family="Times,serif" font-size="14.00" fill="#000000">Йонка</text>
</g>
<!-- Йонка&#45;&gt;Олга_Дъщеря -->
<g id="edge2" class="edge">
<title>Йонка-&gt;Олга_Дъщеря</title>
<path fill="none" stroke="#000000" d="M2973.7612,-402.9008C2954.6193,-392.9855 2930.1233,-380.297 2909.4249,-369.5755"/>
<polygon fill="#000000" stroke="#000000" points="2911.0044,-366.452 2900.5151,-364.9603 2907.7848,-372.6677 2911.0044,-366.452"/>
</g>
<!-- Йонка&#45;&gt;Петър_Син -->
<g id="edge4" class="edge">
<title>Йонка-&gt;Петър_Син</title>
<path fill="none" stroke="#000000" d="M3028.0286,-402.1708C3039.5926,-393.0213 3053.942,-381.6679 3066.5528,-371.6901"/>
<polygon fill="#000000" stroke="#000000" points="3068.8716,-374.3185 3074.5421,-365.3689 3064.5282,-368.829 3068.8716,-374.3185"/>
</g>
<!-- Йонка&#45;&gt;Енчо_Син -->
<g id="edge6" class="edge">
<title>Йонка-&gt;Енчо_Син</title>
<path fill="none" stroke="#000000" d="M3062.852,-406.7278C3115.012,-394.918 3192.6056,-377.3497 3249.6638,-364.4308"/>
<polygon fill="#000000" stroke="#000000" points="3250.7291,-367.7783 3259.7093,-362.1564 3249.1832,-360.9511 3250.7291,-367.7783"/>
</g>
<!-- Петър_Съпруг -->
<g id="node22" class="node">
<title>Петър_Съпруг</title>
<ellipse fill="#ffffff" stroke="#ffffff" cx="3097" cy="-262.8" rx="110.0584" ry="18"/>
<text text-anchor="middle" x="3097" y="-258.6" font-family="Times,serif" font-size="14.00" fill="#000000">Петър_Съпруг</text>
</g>
<!-- Петър_Син&#45;&gt;Петър_Съпруг -->
<g id="edge25" class="edge">
<title>Петър_Син-&gt;Петър_Съпруг</title>
<path fill="none" stroke="#000000" d="M3097,-329.1997C3097,-318.0112 3097,-303.4983 3097,-290.8954"/>
<polygon fill="#000000" stroke="#000000" points="3100.5001,-290.8731 3097,-280.8731 3093.5001,-290.8731 3100.5001,-290.8731"/>
</g>
<!-- Енчо_Съпруг -->
<g id="node17" class="node">
<title>Енчо_Съпруг</title>
<ellipse fill="#ffffff" stroke="#ffffff" cx="3541" cy="-262.8" rx="119.8719" ry="18"/>
<text text-anchor="middle" x="3541" y="-258.6" font-family="Times,serif" font-size="14.00" fill="#000000">Енчо_Съпруг</text>
</g>
<!-- Енчо_Син&#45;&gt;Енчо_Съпруг -->
<g id="edge20" class="edge">
<title>Енчо_Син-&gt;Енчо_Съпруг</title>
<path fill="none" stroke="#000000" d="M3367.4385,-330.8808C3381.6486,-325.3944 3397.5043,-319.2544 3412,-313.6 3437.3257,-303.721 3465.4129,-292.6714 3488.8959,-283.4068"/>
<polygon fill="#000000" stroke="#000000" points="3490.304,-286.6139 3498.3207,-279.6868 3487.734,-280.1027 3490.304,-286.6139"/>
</g>
<!-- Иванка_Дъщеря -->
<g id="node7" class="node">
<title>Иванка_Дъщеря</title>
<ellipse fill="#ffffff" stroke="#ffffff" cx="2128" cy="-190.8" rx="143.0558" ry="18"/>
<text text-anchor="middle" x="2128" y="-186.6" font-family="Times,serif" font-size="14.00" fill="#000000">Иванка_Дъщеря</text>
</g>
<!-- Олга_Съпруга&#45;&gt;Иванка_Дъщеря -->
<g id="edge8" class="edge">
<title>Олга_Съпруга-&gt;Иванка_Дъщеря</title>
<path fill="none" stroke="#000000" d="M2128,-244.6314C2128,-236.931 2128,-227.7743 2128,-219.2166"/>
<polygon fill="#000000" stroke="#000000" points="2131.5001,-219.2132 2128,-209.2133 2124.5001,-219.2133 2131.5001,-219.2132"/>
</g>
<!-- Таня_Дъщеря -->
<g id="node8" class="node">
<title>Таня_Дъщеря</title>
<ellipse fill="#ffffff" stroke="#ffffff" cx="1857" cy="-190.8" rx="110.0404" ry="18"/>
<text text-anchor="middle" x="1857" y="-186.6" font-family="Times,serif" font-size="14.00" fill="#000000">Таня_Дъщеря</text>
</g>
<!-- Олга_Съпруга&#45;&gt;Таня_Дъщеря -->
<g id="edge9" class="edge">
<title>Олга_Съпруга-&gt;Таня_Дъщеря</title>
<path fill="none" stroke="#000000" d="M2067.1823,-246.6418C2024.8184,-235.3864 1968.2907,-220.368 1924.5284,-208.7411"/>
<polygon fill="#000000" stroke="#000000" points="1925.3933,-205.3496 1914.8298,-206.1644 1923.5958,-212.1149 1925.3933,-205.3496"/>
</g>
<!-- Иванка_Съпруга -->
<g id="node10" class="node">
<title>Иванка_Съпруга</title>
<ellipse fill="#ffffff" stroke="#ffffff" cx="2128" cy="-106" rx="167.858" ry="18"/>
<text text-anchor="middle" x="2128" y="-101.8" font-family="Times,serif" font-size="14.00" fill="#000000">Иванка_Съпруга</text>
</g>
<!-- Иванка_Дъщеря&#45;&gt;Иванка_Съпруга -->
<g id="edge12" class="edge">
<title>Иванка_Дъщеря-&gt;Иванка_Съпруга</title>
<path fill="none" stroke="#000000" d="M2128,-172.3997C2128,-161.2112 2128,-146.6983 2128,-134.0954"/>
<polygon fill="#000000" stroke="#000000" points="2131.5001,-134.0731 2128,-124.0731 2124.5001,-134.0731 2131.5001,-134.0731"/>
</g>
<!-- Таня_Съпруга -->
<g id="node14" class="node">
<title>Таня_Съпруга</title>
<ellipse fill="#ffffff" stroke="#ffffff" cx="1501" cy="-106" rx="134.3428" ry="18"/>
<text text-anchor="middle" x="1501" y="-101.8" font-family="Times,serif" font-size="14.00" fill="#000000">Таня_Съпруга</text>
</g>
<!-- Таня_Дъщеря&#45;&gt;Таня_Съпруга -->
<g id="edge17" class="edge">
<title>Таня_Дъщеря-&gt;Таня_Съпруга</title>
<path fill="none" stroke="#000000" d="M1768.687,-179.9936C1730.8994,-174.4726 1686.4762,-166.7823 1647,-156.8 1615.3465,-148.7958 1580.806,-136.9268 1553.2709,-126.6738"/>
<polygon fill="#000000" stroke="#000000" points="1554.4317,-123.371 1543.8397,-123.1236 1551.9655,-129.9222 1554.4317,-123.371"/>
</g>
<!-- Христо -->
<g id="node9" class="node">
<title>Христо</title>
<ellipse fill="#ffffff" stroke="#ffffff" cx="1882" cy="-262.8" rx="64.9006" ry="18"/>
<text text-anchor="middle" x="1882" y="-258.6" font-family="Times,serif" font-size="14.00" fill="#000000">Христо</text>
</g>
<!-- Христо&#45;&gt;Иванка_Дъщеря -->
<g id="edge10" class="edge">
<title>Христо-&gt;Иванка_Дъщеря</title>
<path fill="none" stroke="#000000" d="M1926.8341,-249.6778C1964.5048,-238.6522 2018.8778,-222.7382 2061.6001,-210.2341"/>
<polygon fill="#000000" stroke="#000000" points="2062.744,-213.5462 2071.3582,-207.3781 2060.7776,-206.8281 2062.744,-213.5462"/>
</g>
<!-- Христо&#45;&gt;Таня_Дъщеря -->
<g id="edge11" class="edge">
<title>Христо-&gt;Таня_Дъщеря</title>
<path fill="none" stroke="#000000" d="M1875.6914,-244.6314C1872.9883,-236.8463 1869.7684,-227.5729 1866.769,-218.9347"/>
<polygon fill="#000000" stroke="#000000" points="1869.98,-217.5119 1863.3935,-209.2133 1863.3673,-219.8081 1869.98,-217.5119"/>
</g>
<!-- Делян -->
<g id="node12" class="node">
<title>Делян</title>
<ellipse fill="#ffffff" stroke="#ffffff" cx="1836" cy="-34" rx="73.6138" ry="18"/>
<text text-anchor="middle" x="1836" y="-29.8" font-family="Times,serif" font-size="14.00" fill="#000000">Делян</text>
</g>
<!-- Иванка_Съпруга&#45;&gt;Делян -->
<g id="edge14" class="edge">
<title>Иванка_Съпруга-&gt;Делян</title>
<path fill="none" stroke="#000000" d="M2061.0093,-89.4817C2011.9646,-77.3885 1945.898,-61.0981 1898.0509,-49.3002"/>
<polygon fill="#000000" stroke="#000000" points="1898.6772,-45.8499 1888.1301,-46.854 1897.0013,-52.6463 1898.6772,-45.8499"/>
</g>
<!-- Велина -->
<g id="node13" class="node">
<title>Велина</title>
<ellipse fill="#ffffff" stroke="#ffffff" cx="2092" cy="-34" rx="93.8423" ry="18"/>
<text text-anchor="middle" x="2092" y="-29.8" font-family="Times,serif" font-size="14.00" fill="#000000">Велина</text>
</g>
<!-- Иванка_Съпруга&#45;&gt;Велина -->
<g id="edge16" class="edge">
<title>Иванка_Съпруга-&gt;Велина</title>
<path fill="none" stroke="#000000" d="M2118.9157,-87.8314C2114.9385,-79.8771 2110.1845,-70.369 2105.7861,-61.5723"/>
<polygon fill="#000000" stroke="#000000" points="2108.8093,-59.7923 2101.2066,-52.4133 2102.5483,-62.9228 2108.8093,-59.7923"/>
</g>
<!-- Чавдар_Съпруг -->
<g id="node11" class="node">
<title>Чавдар_Съпруг</title>
<ellipse fill="#ffffff" stroke="#ffffff" cx="1801" cy="-106" rx="141.8283" ry="18"/>
<text text-anchor="middle" x="1801" y="-101.8" font-family="Times,serif" font-size="14.00" fill="#000000">Чавдар_Съпруг</text>
</g>
<!-- Чавдар_Съпруг&#45;&gt;Делян -->
<g id="edge13" class="edge">
<title>Чавдар_Съпруг-&gt;Делян</title>
<path fill="none" stroke="#000000" d="M1809.832,-87.8314C1813.7581,-79.7547 1818.463,-70.0761 1822.7939,-61.1668"/>
<polygon fill="#000000" stroke="#000000" points="1826.0679,-62.4373 1827.2921,-51.9134 1819.7723,-59.3769 1826.0679,-62.4373"/>
</g>
<!-- Чавдар_Съпруг&#45;&gt;Велина -->
<g id="edge15" class="edge">
<title>Чавдар_Съпруг-&gt;Велина</title>
<path fill="none" stroke="#000000" d="M1865.9439,-89.9314C1913.0157,-78.2848 1976.5133,-62.574 2024.2262,-50.7688"/>
<polygon fill="#000000" stroke="#000000" points="2025.2898,-54.1112 2034.1564,-48.3118 2023.6085,-47.3161 2025.2898,-54.1112"/>
</g>
<!-- Орлин -->
<g id="node15" class="node">
<title>Орлин</title>
<ellipse fill="#ffffff" stroke="#ffffff" cx="1359" cy="-34" rx="74.7146" ry="18"/>
<text text-anchor="middle" x="1359" y="-29.8" font-family="Times,serif" font-size="14.00" fill="#000000">Орлин</text>
</g>
<!-- Таня_Съпруга&#45;&gt;Орлин -->
<g id="edge18" class="edge">
<title>Таня_Съпруга-&gt;Орлин</title>
<path fill="none" stroke="#000000" d="M1466.6258,-88.5708C1446.6058,-78.4198 1421.2357,-65.5561 1400.1562,-54.8679"/>
<polygon fill="#000000" stroke="#000000" points="1401.613,-51.6824 1391.1111,-50.2817 1398.4473,-57.9257 1401.613,-51.6824"/>
</g>
<!-- Емил_Съпруг -->
<g id="node16" class="node">
<title>Емил_Съпруг</title>
<ellipse fill="#ffffff" stroke="#ffffff" cx="1218" cy="-106" rx="130.287" ry="18"/>
<text text-anchor="middle" x="1218" y="-101.8" font-family="Times,serif" font-size="14.00" fill="#000000">Емил_Съпруг</text>
</g>
<!-- Емил_Съпруг&#45;&gt;Орлин -->
<g id="edge19" class="edge">
<title>Емил_Съпруг-&gt;Орлин</title>
<path fill="none" stroke="#000000" d="M1252.1322,-88.5708C1272.0112,-78.4198 1297.2026,-65.5561 1318.1337,-54.8679"/>
<polygon fill="#000000" stroke="#000000" points="1319.8007,-57.9466 1327.115,-50.2817 1316.6172,-51.7124 1319.8007,-57.9466"/>
</g>
<!-- Людмил_Син -->
<g id="node19" class="node">
<title>Людмил_Син</title>
<ellipse fill="#ffffff" stroke="#ffffff" cx="3400" cy="-190.8" rx="136.6285" ry="18"/>
<text text-anchor="middle" x="3400" y="-186.6" font-family="Times,serif" font-size="14.00" fill="#000000">Людмил_Син</text>
</g>
<!-- Енчо_Съпруг&#45;&gt;Людмил_Син -->
<g id="edge23" class="edge">
<title>Енчо_Съпруг-&gt;Людмил_Син</title>
<path fill="none" stroke="#000000" d="M3506.8678,-245.3708C3487.7848,-235.6263 3463.8062,-223.3819 3443.4004,-212.9619"/>
<polygon fill="#000000" stroke="#000000" points="3444.8044,-209.7489 3434.3065,-208.3182 3441.6209,-215.9832 3444.8044,-209.7489"/>
</g>
<!-- Елица_Дъщеря -->
<g id="node21" class="node">
<title>Елица_Дъщеря</title>
<ellipse fill="#ffffff" stroke="#ffffff" cx="3691" cy="-190.8" rx="115.7986" ry="18"/>
<text text-anchor="middle" x="3691" y="-186.6" font-family="Times,serif" font-size="14.00" fill="#000000">Елица_Дъщеря</text>
</g>
<!-- Енчо_Съпруг&#45;&gt;Елица_Дъщеря -->
<g id="edge24" class="edge">
<title>Енчо_Съпруг-&gt;Елица_Дъщеря</title>
<path fill="none" stroke="#000000" d="M3576.9287,-245.5542C3597.6326,-235.6164 3623.8476,-223.0332 3645.9247,-212.4362"/>
<polygon fill="#000000" stroke="#000000" points="3647.6041,-215.5124 3655.1048,-208.0297 3644.575,-209.2017 3647.6041,-215.5124"/>
</g>
<!-- Елена -->
<g id="node18" class="node">
<title>Елена</title>
<ellipse fill="#ffffff" stroke="#ffffff" cx="3322" cy="-262.8" rx="81.0987" ry="18"/>
<text text-anchor="middle" x="3322" y="-258.6" font-family="Times,serif" font-size="14.00" fill="#000000">Елена</text>
</g>
<!-- Елена&#45;&gt;Людмил_Син -->
<g id="edge21" class="edge">
<title>Елена-&gt;Людмил_Син</title>
<path fill="none" stroke="#000000" d="M3341.2809,-245.0022C3350.9373,-236.0887 3362.7824,-225.1548 3373.2984,-215.4476"/>
<polygon fill="#000000" stroke="#000000" points="3375.6965,-217.9972 3380.6706,-208.6425 3370.9485,-212.8536 3375.6965,-217.9972"/>
</g>
<!-- Людмил_Съпруг -->
<g id="node30" class="node">
<title>Людмил_Съпруг</title>
<ellipse fill="#ffffff" stroke="#ffffff" cx="3400" cy="-106" rx="147.0865" ry="18"/>
<text text-anchor="middle" x="3400" y="-101.8" font-family="Times,serif" font-size="14.00" fill="#000000">Людмил_Съпруг</text>
</g>
<!-- Людмил_Син&#45;&gt;Людмил_Съпруг -->
<g id="edge35" class="edge">
<title>Людмил_Син-&gt;Людмил_Съпруг</title>
<path fill="none" stroke="#000000" d="M3400,-172.3997C3400,-161.2112 3400,-146.6983 3400,-134.0954"/>
<polygon fill="#000000" stroke="#000000" points="3403.5001,-134.0731 3400,-124.0731 3396.5001,-134.0731 3403.5001,-134.0731"/>
</g>
<!-- Елка -->
<g id="node20" class="node">
<title>Елка</title>
<ellipse fill="#ffffff" stroke="#ffffff" cx="3743" cy="-262.8" rx="63.7161" ry="18"/>
<text text-anchor="middle" x="3743" y="-258.6" font-family="Times,serif" font-size="14.00" fill="#000000">Елка</text>
</g>
<!-- Елка&#45;&gt;Елица_Дъщеря -->
<g id="edge22" class="edge">
<title>Елка-&gt;Елица_Дъщеря</title>
<path fill="none" stroke="#000000" d="M3730.1461,-245.0022C3724.067,-236.5851 3716.6869,-226.3665 3709.9803,-217.0805"/>
<polygon fill="#000000" stroke="#000000" points="3712.7596,-214.9507 3704.0673,-208.8931 3707.0848,-219.0492 3712.7596,-214.9507"/>
</g>
<!-- Елица_Съпруга -->
<g id="node34" class="node">
<title>Елица_Съпруга</title>
<ellipse fill="#ffffff" stroke="#ffffff" cx="4179" cy="-106" rx="140.1008" ry="18"/>
<text text-anchor="middle" x="4179" y="-101.8" font-family="Times,serif" font-size="14.00" fill="#000000">Елица_Съпруга</text>
</g>
<!-- Елица_Дъщеря&#45;&gt;Елица_Съпруга -->
<g id="edge40" class="edge">
<title>Елица_Дъщеря-&gt;Елица_Съпруга</title>
<path fill="none" stroke="#000000" d="M3802.6935,-186.0298C3869.2823,-181.597 3955.1532,-173.0875 4030,-156.8 4063.0857,-149.6002 4099.0452,-137.4711 4127.3477,-126.8702"/>
<polygon fill="#000000" stroke="#000000" points="4128.9169,-130.0182 4137.022,-123.1948 4126.4309,-123.4745 4128.9169,-130.0182"/>
</g>
<!-- Жана_Дъщеря -->
<g id="node24" class="node">
<title>Жана_Дъщеря</title>
<ellipse fill="#ffffff" stroke="#ffffff" cx="2793" cy="-190.8" rx="114.6975" ry="18"/>
<text text-anchor="middle" x="2793" y="-186.6" font-family="Times,serif" font-size="14.00" fill="#000000">Жана_Дъщеря</text>
</g>
<!-- Петър_Съпруг&#45;&gt;Жана_Дъщеря -->
<g id="edge27" class="edge">
<title>Петър_Съпруг-&gt;Жана_Дъщеря</title>
<path fill="none" stroke="#000000" d="M3034.3796,-247.9689C2985.6578,-236.4295 2917.9338,-220.3896 2866.6183,-208.2359"/>
<polygon fill="#000000" stroke="#000000" points="2867.1219,-204.7584 2856.5845,-205.8595 2865.5086,-211.57 2867.1219,-204.7584"/>
</g>
<!-- Йонка_Дъшеря -->
<g id="node25" class="node">
<title>Йонка_Дъшеря</title>
<ellipse fill="#ffffff" stroke="#ffffff" cx="3070" cy="-190.8" rx="128.585" ry="18"/>
<text text-anchor="middle" x="3070" y="-186.6" font-family="Times,serif" font-size="14.00" fill="#000000">Йонка_Дъшеря</text>
</g>
<!-- Петър_Съпруг&#45;&gt;Йонка_Дъшеря -->
<g id="edge29" class="edge">
<title>Петър_Съпруг-&gt;Йонка_Дъшеря</title>
<path fill="none" stroke="#000000" d="M3090.1868,-244.6314C3087.2356,-236.7617 3083.7142,-227.3712 3080.445,-218.6533"/>
<polygon fill="#000000" stroke="#000000" points="3083.6934,-217.3476 3076.905,-209.2133 3077.1391,-219.8055 3083.6934,-217.3476"/>
</g>
<!-- Маргарита_1_Съпруга -->
<g id="node23" class="node">
<title>Маргарита_1_Съпруга</title>
<ellipse fill="#ffffff" stroke="#ffffff" cx="2785" cy="-262.8" rx="183.5133" ry="18"/>
<text text-anchor="middle" x="2785" y="-258.6" font-family="Times,serif" font-size="14.00" fill="#000000">Маргарита_1_Съпруга</text>
</g>
<!-- Маргарита_1_Съпруга&#45;&gt;Жана_Дъщеря -->
<g id="edge26" class="edge">
<title>Маргарита_1_Съпруга-&gt;Жана_Дъщеря</title>
<path fill="none" stroke="#000000" d="M2787.0187,-244.6314C2787.8743,-236.931 2788.8917,-227.7743 2789.8426,-219.2166"/>
<polygon fill="#000000" stroke="#000000" points="2793.3283,-219.5386 2790.9541,-209.2133 2786.3711,-218.7656 2793.3283,-219.5386"/>
</g>
<!-- Маргарита_1_Съпруга&#45;&gt;Йонка_Дъшеря -->
<g id="edge28" class="edge">
<title>Маргарита_1_Съпруга-&gt;Йонка_Дъшеря</title>
<path fill="none" stroke="#000000" d="M2851.4602,-246.0101C2895.1946,-234.9614 2952.4431,-220.4986 2997.3747,-209.1474"/>
<polygon fill="#000000" stroke="#000000" points="2998.5086,-212.471 3007.3467,-206.6282 2996.794,-205.6842 2998.5086,-212.471"/>
</g>
<!-- Жана_Съпруга -->
<g id="node26" class="node">
<title>Жана_Съпруга</title>
<ellipse fill="#ffffff" stroke="#ffffff" cx="2793" cy="-106" rx="139.5001" ry="18"/>
<text text-anchor="middle" x="2793" y="-101.8" font-family="Times,serif" font-size="14.00" fill="#000000">Жана_Съпруга</text>
</g>
<!-- Жана_Дъщеря&#45;&gt;Жана_Съпруга -->
<g id="edge30" class="edge">
<title>Жана_Дъщеря-&gt;Жана_Съпруга</title>
<path fill="none" stroke="#000000" d="M2793,-172.3997C2793,-161.2112 2793,-146.6983 2793,-134.0954"/>
<polygon fill="#000000" stroke="#000000" points="2796.5001,-134.0731 2793,-124.0731 2789.5001,-134.0731 2796.5001,-134.0731"/>
</g>
<!-- Йоанна_Дъщеря -->
<g id="node27" class="node">
<title>Йоанна_Дъщеря</title>
<ellipse fill="#ffffff" stroke="#ffffff" cx="2466" cy="-34" rx="146.4678" ry="18"/>
<text text-anchor="middle" x="2466" y="-29.8" font-family="Times,serif" font-size="14.00" fill="#000000">Йоанна_Дъщеря</text>
</g>
<!-- Жана_Съпруга&#45;&gt;Йоанна_Дъщеря -->
<g id="edge31" class="edge">
<title>Жана_Съпруга-&gt;Йоанна_Дъщеря</title>
<path fill="none" stroke="#000000" d="M2722.4485,-90.4657C2671.0139,-79.1407 2601.2026,-63.7694 2547.4047,-51.924"/>
<polygon fill="#000000" stroke="#000000" points="2548.0726,-48.4873 2537.5539,-49.755 2546.5673,-55.3235 2548.0726,-48.4873"/>
</g>
<!-- Александър_Син -->
<g id="node29" class="node">
<title>Александър_Син</title>
<ellipse fill="#ffffff" stroke="#ffffff" cx="2802" cy="-34" rx="171.3709" ry="18"/>
<text text-anchor="middle" x="2802" y="-29.8" font-family="Times,serif" font-size="14.00" fill="#000000">Александър_Син</text>
</g>
<!-- Жана_Съпруга&#45;&gt;Александър_Син -->
<g id="edge33" class="edge">
<title>Жана_Съпруга-&gt;Александър_Син</title>
<path fill="none" stroke="#000000" d="M2795.2711,-87.8314C2796.2336,-80.131 2797.3782,-70.9743 2798.4479,-62.4166"/>
<polygon fill="#000000" stroke="#000000" points="2801.9309,-62.7702 2799.6983,-52.4133 2794.9849,-61.9019 2801.9309,-62.7702"/>
</g>
<!-- Юлиан_Съпруг -->
<g id="node28" class="node">
<title>Юлиан_Съпруг</title>
<ellipse fill="#ffffff" stroke="#ffffff" cx="2474" cy="-106" rx="145.3374" ry="18"/>
<text text-anchor="middle" x="2474" y="-101.8" font-family="Times,serif" font-size="14.00" fill="#000000">Юлиан_Съпруг</text>
</g>
<!-- Юлиан_Съпруг&#45;&gt;Йоанна_Дъщеря -->
<g id="edge32" class="edge">
<title>Юлиан_Съпруг-&gt;Йоанна_Дъщеря</title>
<path fill="none" stroke="#000000" d="M2471.9813,-87.8314C2471.1257,-80.131 2470.1083,-70.9743 2469.1574,-62.4166"/>
<polygon fill="#000000" stroke="#000000" points="2472.6289,-61.9656 2468.0459,-52.4133 2465.6717,-62.7386 2472.6289,-61.9656"/>
</g>
<!-- Юлиан_Съпруг&#45;&gt;Александър_Син -->
<g id="edge34" class="edge">
<title>Юлиан_Съпруг-&gt;Александър_Син</title>
<path fill="none" stroke="#000000" d="M2545.5757,-90.2883C2596.4158,-79.1282 2664.8503,-64.106 2718.2342,-52.3876"/>
<polygon fill="#000000" stroke="#000000" points="2719.0024,-55.8024 2728.0194,-50.2396 2717.5015,-48.9652 2719.0024,-55.8024"/>
</g>
<!-- Зорница_Дъщеря -->
<g id="node32" class="node">
<title>Зорница_Дъщеря</title>
<ellipse fill="#ffffff" stroke="#ffffff" cx="3134" cy="-34" rx="137.2548" ry="18"/>
<text text-anchor="middle" x="3134" y="-29.8" font-family="Times,serif" font-size="14.00" fill="#000000">Зорница_Дъщеря</text>
</g>
<!-- Людмил_Съпруг&#45;&gt;Зорница_Дъщеря -->
<g id="edge37" class="edge">
<title>Людмил_Съпруг-&gt;Зорница_Дъщеря</title>
<path fill="none" stroke="#000000" d="M3339.3076,-89.572C3298.9926,-78.6597 3245.9427,-64.3003 3203.8682,-52.9117"/>
<polygon fill="#000000" stroke="#000000" points="3204.5399,-49.4676 3193.9728,-50.2332 3202.711,-56.2245 3204.5399,-49.4676"/>
</g>
<!-- Антон_Син -->
<g id="node33" class="node">
<title>Антон_Син</title>
<ellipse fill="#ffffff" stroke="#ffffff" cx="3418" cy="-34" rx="128.5419" ry="18"/>
<text text-anchor="middle" x="3418" y="-29.8" font-family="Times,serif" font-size="14.00" fill="#000000">Антон_Син</text>
</g>
<!-- Людмил_Съпруг&#45;&gt;Антон_Син -->
<g id="edge39" class="edge">
<title>Людмил_Съпруг-&gt;Антон_Син</title>
<path fill="none" stroke="#000000" d="M3404.5422,-87.8314C3406.4884,-80.0463 3408.8068,-70.7729 3410.9663,-62.1347"/>
<polygon fill="#000000" stroke="#000000" points="3414.3668,-62.9636 3413.3967,-52.4133 3407.5758,-61.2658 3414.3668,-62.9636"/>
</g>
<!-- НН_Съпруга -->
<g id="node31" class="node">
<title>НН_Съпруга</title>
<ellipse fill="#ffffff" stroke="#ffffff" cx="3127" cy="-106" rx="107.7297" ry="18"/>
<text text-anchor="middle" x="3127" y="-101.8" font-family="Times,serif" font-size="14.00" fill="#000000">НН_Съпруга</text>
</g>
<!-- НН_Съпруга&#45;&gt;Зорница_Дъщеря -->
<g id="edge36" class="edge">
<title>НН_Съпруга-&gt;Зорница_Дъщеря</title>
<path fill="none" stroke="#000000" d="M3128.7664,-87.8314C3129.515,-80.131 3130.4053,-70.9743 3131.2373,-62.4166"/>
<polygon fill="#000000" stroke="#000000" points="3134.7256,-62.7051 3132.2098,-52.4133 3127.7585,-62.0276 3134.7256,-62.7051"/>
</g>
<!-- НН_Съпруга&#45;&gt;Антон_Син -->
<g id="edge38" class="edge">
<title>НН_Съпруга-&gt;Антон_Син</title>
<path fill="none" stroke="#000000" d="M3187.6489,-90.9941C3233.3862,-79.6777 3296.3179,-64.1069 3344.8469,-52.0997"/>
<polygon fill="#000000" stroke="#000000" points="3345.7948,-55.4708 3354.6615,-49.6714 3344.1135,-48.6757 3345.7948,-55.4708"/>
</g>
<!-- 1 -->
<g id="node35" class="node">
<title>1</title>
<ellipse fill="#ffffff" stroke="#ffffff" cx="3821" cy="-34" rx="27" ry="18"/>
<text text-anchor="middle" x="3821" y="-29.8" font-family="Times,serif" font-size="14.00" fill="#000000">1</text>
</g>
<!-- Елица_Съпруга&#45;&gt;1 -->
<g id="edge41" class="edge">
<title>Елица_Съпруга-&gt;1</title>
<path fill="none" stroke="#000000" d="M4103.5149,-90.8186C4027.8107,-75.5932 3914.4695,-52.7983 3857.0745,-41.2552"/>
<polygon fill="#000000" stroke="#000000" points="3857.5241,-37.7756 3847.0303,-39.2352 3856.1439,-44.6382 3857.5241,-37.7756"/>
</g>
<!-- 2 -->
<g id="node38" class="node">
<title>2</title>
<ellipse fill="#ffffff" stroke="#ffffff" cx="4083" cy="-34" rx="27" ry="18"/>
<text text-anchor="middle" x="4083" y="-29.8" font-family="Times,serif" font-size="14.00" fill="#000000">2</text>
</g>
<!-- Елица_Съпруга&#45;&gt;2 -->
<g id="edge43" class="edge">
<title>Елица_Съпруга-&gt;2</title>
<path fill="none" stroke="#000000" d="M4155.2697,-88.2022C4141.2524,-77.6893 4123.488,-64.366 4109.0795,-53.5596"/>
<polygon fill="#000000" stroke="#000000" points="4111.1375,-50.7282 4101.0375,-47.5281 4106.9375,-56.3282 4111.1375,-50.7282"/>
</g>
<!-- _Син -->
<g id="node36" class="node">
<title>_Син</title>
<ellipse fill="#ffffff" stroke="#ffffff" cx="3960" cy="-106" rx="60.8448" ry="18"/>
<text text-anchor="middle" x="3960" y="-101.8" font-family="Times,serif" font-size="14.00" fill="#000000">_Син</text>
</g>
<!-- Красимир_Съпруг -->
<g id="node37" class="node">
<title>Красимир_Съпруг</title>
<ellipse fill="#ffffff" stroke="#ffffff" cx="3726" cy="-106" rx="155.1729" ry="18"/>
<text text-anchor="middle" x="3726" y="-101.8" font-family="Times,serif" font-size="14.00" fill="#000000">Красимир_Съпруг</text>
</g>
<!-- Красимир_Съпруг&#45;&gt;1 -->
<g id="edge42" class="edge">
<title>Красимир_Съпруг-&gt;1</title>
<path fill="none" stroke="#000000" d="M3749.4832,-88.2022C3763.2247,-77.7876 3780.6055,-64.6148 3794.7915,-53.8633"/>
<polygon fill="#000000" stroke="#000000" points="3797.2948,-56.3577 3803.1504,-47.5281 3793.0666,-50.7789 3797.2948,-56.3577"/>
</g>
<!-- Красимир_Съпруг&#45;&gt;2 -->
<g id="edge44" class="edge">
<title>Красимир_Съпруг-&gt;2</title>
<path fill="none" stroke="#000000" d="M3803.4637,-90.3771C3878.9484,-75.1533 3990.3768,-52.6803 4047.0526,-41.2499"/>
<polygon fill="#000000" stroke="#000000" points="4047.8664,-44.6563 4056.977,-39.2483 4046.4824,-37.7945 4047.8664,-44.6563"/>
</g>
<!-- Иван_Съпруг -->
<g id="node39" class="node">
<title>Иван_Съпруг</title>
<ellipse fill="#ffffff" stroke="#ffffff" cx="490" cy="-419.6" rx="129.6858" ry="18"/>
<text text-anchor="middle" x="490" y="-415.4" font-family="Times,serif" font-size="14.00" fill="#000000">Иван_Съпруг</text>
</g>
<!-- Живко_Син -->
<g id="node40" class="node">
<title>Живко_Син</title>
<ellipse fill="#ffffff" stroke="#ffffff" cx="193" cy="-347.6" rx="126.2312" ry="18"/>
<text text-anchor="middle" x="193" y="-343.4" font-family="Times,serif" font-size="14.00" fill="#000000">Живко_Син</text>
</g>
<!-- Иван_Съпруг&#45;&gt;Живко_Син -->
<g id="edge45" class="edge">
<title>Иван_Съпруг-&gt;Живко_Син</title>
<path fill="none" stroke="#000000" d="M425.5554,-403.9771C378.8696,-392.6593 315.6571,-377.3351 266.92,-365.52"/>
<polygon fill="#000000" stroke="#000000" points="267.6064,-362.0851 257.0632,-363.1305 265.9571,-368.888 267.6064,-362.0851"/>
</g>
<!-- Маргарита_2_Дъщеря -->
<g id="node42" class="node">
<title>Маргарита_2_Дъщеря</title>
<ellipse fill="#ffffff" stroke="#ffffff" cx="496" cy="-347.6" rx="159.211" ry="18"/>
<text text-anchor="middle" x="496" y="-343.4" font-family="Times,serif" font-size="14.00" fill="#000000">Маргарита_2_Дъщеря</text>
</g>
<!-- Иван_Съпруг&#45;&gt;Маргарита_2_Дъщеря -->
<g id="edge47" class="edge">
<title>Иван_Съпруг-&gt;Маргарита_2_Дъщеря</title>
<path fill="none" stroke="#000000" d="M491.5141,-401.4314C492.1558,-393.731 492.9188,-384.5743 493.6319,-376.0166"/>
<polygon fill="#000000" stroke="#000000" points="497.1229,-376.2694 494.4656,-366.0133 490.1471,-375.688 497.1229,-376.2694"/>
</g>
<!-- Живко_Съпруг -->
<g id="node45" class="node">
<title>Живко_Съпруг</title>
<ellipse fill="#ffffff" stroke="#ffffff" cx="153" cy="-262.8" rx="137.1889" ry="18"/>
<text text-anchor="middle" x="153" y="-258.6" font-family="Times,serif" font-size="14.00" fill="#000000">Живко_Съпруг</text>
</g>
<!-- Живко_Син&#45;&gt;Живко_Съпруг -->
<g id="edge51" class="edge">
<title>Живко_Син-&gt;Живко_Съпруг</title>
<path fill="none" stroke="#000000" d="M184.517,-329.6161C179.1443,-318.2259 172.0894,-303.2696 166.0168,-290.3956"/>
<polygon fill="#000000" stroke="#000000" points="169.0404,-288.6015 161.6086,-281.0503 162.7094,-291.5878 169.0404,-288.6015"/>
</g>
<!-- Жена_Иван -->
<g id="node41" class="node">
<title>Жена_Иван</title>
<ellipse fill="#ffffff" stroke="#ffffff" cx="207" cy="-419.6" rx="129.1684" ry="18"/>
<text text-anchor="middle" x="207" y="-415.4" font-family="Times,serif" font-size="14.00" fill="#000000">Жена_Иван</text>
</g>
<!-- Жена_Иван&#45;&gt;Живко_Син -->
<g id="edge46" class="edge">
<title>Жена_Иван-&gt;Живко_Син</title>
<path fill="none" stroke="#000000" d="M203.4672,-401.4314C201.9699,-393.731 200.1895,-384.5743 198.5255,-376.0166"/>
<polygon fill="#000000" stroke="#000000" points="201.9248,-375.1614 196.5804,-366.0133 195.0535,-376.4975 201.9248,-375.1614"/>
</g>
<!-- Жена_Иван&#45;&gt;Маргарита_2_Дъщеря -->
<g id="edge48" class="edge">
<title>Жена_Иван-&gt;Маргарита_2_Дъщеря</title>
<path fill="none" stroke="#000000" d="M270.4223,-403.7993C314.5546,-392.8044 373.605,-378.0929 420.2189,-366.4797"/>
<polygon fill="#000000" stroke="#000000" points="421.1099,-369.8648 429.9672,-364.0511 419.4176,-363.0724 421.1099,-369.8648"/>
</g>
<!-- Маргарита_2_Съпруга -->
<g id="node48" class="node">
<title>Маргарита_2_Съпруга</title>
<ellipse fill="#ffffff" stroke="#ffffff" cx="900" cy="-262.8" rx="183.5133" ry="18"/>
<text text-anchor="middle" x="900" y="-258.6" font-family="Times,serif" font-size="14.00" fill="#000000">Маргарита_2_Съпруга</text>
</g>
<!-- Маргарита_2_Дъщеря&#45;&gt;Маргарита_2_Съпруга -->
<g id="edge56" class="edge">
<title>Маргарита_2_Дъщеря-&gt;Маргарита_2_Съпруга</title>
<path fill="none" stroke="#000000" d="M594.2199,-333.438C629.0223,-327.9205 668.3759,-321.1117 704,-313.6 746.1516,-304.7119 792.8621,-292.6921 830.1072,-282.5756"/>
<polygon fill="#000000" stroke="#000000" points="831.1311,-285.9243 839.8553,-279.9128 829.2864,-279.1717 831.1311,-285.9243"/>
</g>
<!-- Антоанета_Съпруга -->
<g id="node43" class="node">
<title>Антоанета_Съпруга</title>
<ellipse fill="#ffffff" stroke="#ffffff" cx="500" cy="-262.8" rx="192.2261" ry="18"/>
<text text-anchor="middle" x="500" y="-258.6" font-family="Times,serif" font-size="14.00" fill="#000000">Антоанета_Съпруга</text>
</g>
<!-- Иван_Син -->
<g id="node44" class="node">
<title>Иван_Син</title>
<ellipse fill="#ffffff" stroke="#ffffff" cx="326" cy="-190.8" rx="118.7282" ry="18"/>
<text text-anchor="middle" x="326" y="-186.6" font-family="Times,serif" font-size="14.00" fill="#000000">Иван_Син</text>
</g>
<!-- Антоанета_Съпруга&#45;&gt;Иван_Син -->
<g id="edge49" class="edge">
<title>Антоанета_Съпруга-&gt;Иван_Син</title>
<path fill="none" stroke="#000000" d="M457.4348,-245.1868C432.9904,-235.0719 402.1487,-222.3098 376.4855,-211.6906"/>
<polygon fill="#000000" stroke="#000000" points="377.506,-208.3251 366.9275,-207.7355 374.8295,-214.7932 377.506,-208.3251"/>
</g>
<!-- Живко_Съпруг&#45;&gt;Иван_Син -->
<g id="edge50" class="edge">
<title>Живко_Съпруг-&gt;Иван_Син</title>
<path fill="none" stroke="#000000" d="M194.4378,-245.5542C218.9207,-235.3648 250.0857,-222.3944 275.9374,-211.6353"/>
<polygon fill="#000000" stroke="#000000" points="277.3116,-214.8545 285.1991,-207.7807 274.6219,-208.3918 277.3116,-214.8545"/>
</g>
<!-- Петър_2_Съпруг -->
<g id="node46" class="node">
<title>Петър_2_Съпруг</title>
<ellipse fill="#ffffff" stroke="#ffffff" cx="1221" cy="-262.8" rx="119.8719" ry="18"/>
<text text-anchor="middle" x="1221" y="-258.6" font-family="Times,serif" font-size="14.00" fill="#000000">Петър_2_Съпруг</text>
</g>
<!-- Звездомир_Син -->
<g id="node47" class="node">
<title>Звездомир_Син</title>
<ellipse fill="#ffffff" stroke="#ffffff" cx="902" cy="-190.8" rx="173.9853" ry="18"/>
<text text-anchor="middle" x="902" y="-186.6" font-family="Times,serif" font-size="14.00" fill="#000000">Звездомир_Син</text>
</g>
<!-- Петър_2_Съпруг&#45;&gt;Звездомир_Син -->
<g id="edge52" class="edge">
<title>Петър_2_Съпруг-&gt;Звездомир_Син</title>
<path fill="none" stroke="#000000" d="M1154.5154,-247.7941C1105.1115,-236.6434 1037.4066,-221.362 984.5388,-209.4294"/>
<polygon fill="#000000" stroke="#000000" points="985.0359,-205.9537 974.5107,-207.1661 983.4947,-212.7819 985.0359,-205.9537"/>
</g>
<!-- Емил_Син -->
<g id="node49" class="node">
<title>Емил_Син</title>
<ellipse fill="#ffffff" stroke="#ffffff" cx="1218" cy="-190.8" rx="119.8294" ry="18"/>
<text text-anchor="middle" x="1218" y="-186.6" font-family="Times,serif" font-size="14.00" fill="#000000">Емил_Син</text>
</g>
<!-- Петър_2_Съпруг&#45;&gt;Емил_Син -->
<g id="edge54" class="edge">
<title>Петър_2_Съпруг-&gt;Емил_Син</title>
<path fill="none" stroke="#000000" d="M1220.243,-244.6314C1219.9221,-236.931 1219.5406,-227.7743 1219.184,-219.2166"/>
<polygon fill="#000000" stroke="#000000" points="1222.6806,-219.0589 1218.7672,-209.2133 1215.6867,-219.3503 1222.6806,-219.0589"/>
</g>
<!-- Маргарита_2_Съпруга&#45;&gt;Звездомир_Син -->
<g id="edge53" class="edge">
<title>Маргарита_2_Съпруга-&gt;Звездомир_Син</title>
<path fill="none" stroke="#000000" d="M900.5047,-244.6314C900.7186,-236.931 900.9729,-227.7743 901.2106,-219.2166"/>
<polygon fill="#000000" stroke="#000000" points="904.7094,-219.3066 901.4885,-209.2133 897.7121,-219.1122 904.7094,-219.3066"/>
</g>
<!-- Маргарита_2_Съпруга&#45;&gt;Емил_Син -->
<g id="edge55" class="edge">
<title>Маргарита_2_Съпруга-&gt;Емил_Син</title>
<path fill="none" stroke="#000000" d="M972.9556,-246.2817C1023.4105,-234.858 1090.4074,-219.6889 1141.5943,-208.0994"/>
<polygon fill="#000000" stroke="#000000" points="1142.6311,-211.4533 1151.6113,-205.8314 1141.0852,-204.6261 1142.6311,-211.4533"/>
</g>
<!-- Емил_Син&#45;&gt;Емил_Съпруг -->
<g id="edge57" class="edge">
<title>Емил_Син-&gt;Емил_Съпруг</title>
<path fill="none" stroke="#000000" d="M1218,-172.3997C1218,-161.2112 1218,-146.6983 1218,-134.0954"/>
<polygon fill="#000000" stroke="#000000" points="1221.5001,-134.0731 1218,-124.0731 1214.5001,-134.0731 1221.5001,-134.0731"/>
</g>
<!-- Михаил_Съпруг -->
<g id="node50" class="node">
<title>Михаил_Съпруг</title>
<ellipse fill="#ffffff" stroke="#ffffff" cx="1395" cy="-419.6" rx="140.7021" ry="18"/>
<text text-anchor="middle" x="1395" y="-415.4" font-family="Times,serif" font-size="14.00" fill="#000000">Михаил_Съпруг</text>
</g>
<!-- Благовестка_Дъщеря -->
<g id="node51" class="node">
<title>Благовестка_Дъщеря</title>
<ellipse fill="#ffffff" stroke="#ffffff" cx="907" cy="-347.6" rx="186.9683" ry="18"/>
<text text-anchor="middle" x="907" y="-343.4" font-family="Times,serif" font-size="14.00" fill="#000000">Благовестка_Дъщеря</text>
</g>
<!-- Михаил_Съпруг&#45;&gt;Благовестка_Дъщеря -->
<g id="edge58" class="edge">
<title>Михаил_Съпруг-&gt;Благовестка_Дъщеря</title>
<path fill="none" stroke="#000000" d="M1302.6372,-405.9727C1222.2336,-394.1099 1105.4345,-376.8772 1019.5776,-364.2098"/>
<polygon fill="#000000" stroke="#000000" points="1019.9329,-360.7244 1009.5291,-362.7272 1018.9111,-367.6494 1019.9329,-360.7244"/>
</g>
<!-- Петър_2_Син -->
<g id="node53" class="node">
<title>Петър_2_Син</title>
<ellipse fill="#ffffff" stroke="#ffffff" cx="1221" cy="-347.6" rx="109.4145" ry="18"/>
<text text-anchor="middle" x="1221" y="-343.4" font-family="Times,serif" font-size="14.00" fill="#000000">Петър_2_Син</text>
</g>
<!-- Михаил_Съпруг&#45;&gt;Петър_2_Син -->
<g id="edge60" class="edge">
<title>Михаил_Съпруг-&gt;Петър_2_Син</title>
<path fill="none" stroke="#000000" d="M1353.3227,-402.3542C1328.5192,-392.0907 1296.8968,-379.0056 1270.7855,-368.2009"/>
<polygon fill="#000000" stroke="#000000" points="1272.0162,-364.9224 1261.4378,-364.3329 1269.3397,-371.3905 1272.0162,-364.9224"/>
</g>
<!-- Цветанка_Дъщеря -->
<g id="node54" class="node">
<title>Цветанка_Дъщеря</title>
<ellipse fill="#ffffff" stroke="#ffffff" cx="1511" cy="-347.6" rx="162.6833" ry="18"/>
<text text-anchor="middle" x="1511" y="-343.4" font-family="Times,serif" font-size="14.00" fill="#000000">Цветанка_Дъщеря</text>
</g>
<!-- Михаил_Съпруг&#45;&gt;Цветанка_Дъщеря -->
<g id="edge62" class="edge">
<title>Михаил_Съпруг-&gt;Цветанка_Дъщеря</title>
<path fill="none" stroke="#000000" d="M1423.6742,-401.8022C1438.732,-392.456 1457.3686,-380.8884 1473.553,-370.843"/>
<polygon fill="#000000" stroke="#000000" points="1475.603,-373.69 1482.2537,-365.4425 1471.9115,-367.7425 1475.603,-373.69"/>
</g>
<!-- Ангелина_Съпруга -->
<g id="node52" class="node">
<title>Ангелина_Съпруга</title>
<ellipse fill="#ffffff" stroke="#ffffff" cx="1036" cy="-419.6" rx="200.3126" ry="18"/>
<text text-anchor="middle" x="1036" y="-415.4" font-family="Times,serif" font-size="14.00" fill="#000000">Ангелина_Съпруга</text>
</g>
<!-- Ангелина_Съпруга&#45;&gt;Благовестка_Дъщеря -->
<g id="edge59" class="edge">
<title>Ангелина_Съпруга-&gt;Благовестка_Дъщеря</title>
<path fill="none" stroke="#000000" d="M1004.1124,-401.8022C987.2119,-392.3694 966.2577,-380.674 948.1445,-370.5643"/>
<polygon fill="#000000" stroke="#000000" points="949.4057,-367.2601 938.9679,-365.4425 945.9941,-373.3725 949.4057,-367.2601"/>
</g>
<!-- Ангелина_Съпруга&#45;&gt;Петър_2_Син -->
<g id="edge61" class="edge">
<title>Ангелина_Съпруга-&gt;Петър_2_Син</title>
<path fill="none" stroke="#000000" d="M1081.2561,-401.9868C1107.6662,-391.7083 1141.0998,-378.6963 1168.6425,-367.977"/>
<polygon fill="#000000" stroke="#000000" points="1170.0681,-371.178 1178.1178,-364.2893 1167.5292,-364.6546 1170.0681,-371.178"/>
</g>
<!-- Ангелина_Съпруга&#45;&gt;Цветанка_Дъщеря -->
<g id="edge63" class="edge">
<title>Ангелина_Съпруга-&gt;Цветанка_Дъщеря</title>
<path fill="none" stroke="#000000" d="M1138.1911,-404.11C1216.8968,-392.1799 1325.3531,-375.7402 1404.9982,-363.6676"/>
<polygon fill="#000000" stroke="#000000" points="1405.6923,-367.1025 1415.0548,-362.1433 1404.6432,-360.1816 1405.6923,-367.1025"/>
</g>
<!-- Петър_2_Син&#45;&gt;Петър_2_Съпруг -->
<g id="edge64" class="edge">
<title>Петър_2_Син-&gt;Петър_2_Съпруг</title>
<path fill="none" stroke="#000000" d="M1221,-329.1997C1221,-318.0112 1221,-303.4983 1221,-290.8954"/>
<polygon fill="#000000" stroke="#000000" points="1224.5001,-290.8731 1221,-280.8731 1217.5001,-290.8731 1224.5001,-290.8731"/>
</g>
<!-- Петър_3_Син -->
<g id="node55" class="node">
<title>Петър_3_Син</title>
<ellipse fill="#ffffff" stroke="#ffffff" cx="3187" cy="-576.4" rx="109.4145" ry="18"/>
<text text-anchor="middle" x="3187" y="-572.2" font-family="Times,serif" font-size="14.00" fill="#000000">Петър_3_Син</text>
</g>
<!-- Петър_3_Съпруг -->
<g id="node56" class="node">
<title>Петър_3_Съпруг</title>
<ellipse fill="#ffffff" stroke="#ffffff" cx="3187" cy="-504.4" rx="119.8719" ry="18"/>
<text text-anchor="middle" x="3187" y="-500.2" font-family="Times,serif" font-size="14.00" fill="#000000">Петър_3_Съпруг</text>
</g>
<!-- Петър_3_Син&#45;&gt;Петър_3_Съпруг -->
<g id="edge65" class="edge">
<title>Петър_3_Син-&gt;Петър_3_Съпруг</title>
<path fill="none" stroke="#000000" d="M3187,-558.2314C3187,-550.531 3187,-541.3743 3187,-532.8166"/>
<polygon fill="#000000" stroke="#000000" points="3190.5001,-532.8132 3187,-522.8133 3183.5001,-532.8133 3190.5001,-532.8132"/>
</g>
<!-- Петър_3_Съпруг&#45;&gt;Димитър -->
<g id="edge66" class="edge">
<title>Петър_3_Съпруг-&gt;Димитър</title>
<path fill="none" stroke="#000000" d="M3187,-485.9997C3187,-474.8112 3187,-460.2983 3187,-447.6954"/>
<polygon fill="#000000" stroke="#000000" points="3190.5001,-447.6731 3187,-437.6731 3183.5001,-447.6731 3190.5001,-447.6731"/>
</g>
</g>
</svg>